<svg width="24" height="24" viewBox="0 0 24 24" fill="none" xmlns="http://www.w3.org/2000/svg">
<path fill-rule="evenodd" clip-rule="evenodd" d="M21.1612 2.26007C21.4454 2.14047 21.7564 2.09923 22.0619 2.14062C22.3673 2.18201 22.6562 2.30453 22.8982 2.49542C23.1403 2.68631 23.3268 2.9386 23.4383 3.22602C23.5498 3.51344 23.5822 3.82549 23.5322 4.12969L20.9243 19.9479C20.6714 21.4737 18.9972 22.3488 17.5979 21.5887C16.4274 20.9529 14.6888 19.9732 13.125 18.951C12.3432 18.4393 9.94805 16.8008 10.2424 15.6349C10.4954 14.638 14.5198 10.8918 16.8194 8.66462C17.7221 7.7896 17.3104 7.28483 16.2445 8.08971C13.5976 10.0881 9.34784 13.1271 7.94275 13.9826C6.70323 14.7369 6.05702 14.8657 5.28433 14.7369C3.87464 14.5023 2.56728 14.139 1.50024 13.6963C0.058352 13.0984 0.128492 11.1161 1.49909 10.5388L21.1612 2.26007Z" fill="white"/>
</svg>
