<svg width="180" height="180" viewBox="0 0 180 180" fill="none" xmlns="http://www.w3.org/2000/svg">
<path d="M146.824 66.4228L130.36 58.1825L113.796 49.9091L77.3506 29.1348L110.378 45.6485L130.855 57.3238L146.824 66.4228Z" stroke="#0575E6" stroke-width="2" stroke-linecap="round" stroke-linejoin="round"/>
<path d="M175.542 53.7403L106.679 172.507L98.026 167.586L130.921 110.861L126.446 108.302L93.5508 165.026L84.9141 160.105L117.793 103.381L113.466 100.904L80.5875 157.628L74.6591 154.259L71.9343 152.707L104.665 95.9L100.189 93.522L67.3104 150.247L65.9398 149.454L61.448 146.911L58.6572 145.309L97.415 78.2961L113.417 87.4117L129.369 96.5108L146.824 66.4229L130.855 57.3238L110.378 45.6486L122.037 25.5513L123.044 23.8174L175.542 53.7403Z" stroke="#0575E6" stroke-width="2" stroke-linecap="round" stroke-linejoin="round"/>
<path d="M67.3098 150.247L65.8896 149.553L53.719 143.559L54.0162 143.063L58.6566 145.309L61.4474 146.911L65.9392 149.454L67.3098 150.247Z" stroke="#0575E6" stroke-width="2" stroke-linecap="round" stroke-linejoin="round"/>
<path d="M104.665 95.9004L71.9343 152.708L65.8242 149.653L61.2003 147.324L52.2994 142.866L47.8407 140.636V140.62L38.9233 136.161L20.6921 127.045L19.1893 126.187L3.55078 117.269L21.237 126.104L25.8444 128.416L34.7783 132.875L36.5783 133.783L39.3691 135.385L46.2554 139.299L46.2719 139.315L48.0223 140.306L52.3489 142.783L53.7196 143.559L65.8902 149.554L67.3104 150.247L100.189 93.5225L104.665 95.9004Z" stroke="#0575E6" stroke-width="2" stroke-linecap="round" stroke-linejoin="round"/>
<path d="M130.921 110.861L98.0256 167.586L73.9155 155.531L64.998 151.072L65.1467 150.825L74.0641 155.283L93.5503 165.027L126.446 108.302L130.921 110.861Z" stroke="#0575E6" stroke-width="2" stroke-linecap="round" stroke-linejoin="round"/>
<path d="M123.044 23.8176L122.037 25.5515L110.378 45.6488L77.3506 29.135L90.0166 7.30371L123.044 23.8176Z" stroke="#0575E6" stroke-width="2" stroke-linecap="round" stroke-linejoin="round"/>
<path d="M88.926 43.502L87.9186 45.2525L79.1168 60.4286L75.1865 67.1828L74.8562 67.7608L68.9443 77.9497L36.5773 133.783L34.7773 132.875L25.8434 128.416L21.236 126.104L3.5498 117.269L55.8984 26.9883L88.926 43.502Z" stroke="#0575E6" stroke-width="2" stroke-linecap="round" stroke-linejoin="round"/>
<path d="M129.22 86.6853L117.297 80.7238L100.734 72.4339L96.2588 70.2046L97.2661 68.4541L101.609 70.9312L117.661 80.0963L129.22 86.6853Z" stroke="#0575E6" stroke-width="2" stroke-linecap="round" stroke-linejoin="round"/>
<path d="M146.824 66.4229L129.368 96.511L113.416 87.4119L97.4143 78.2963L97.3483 78.2633L92.873 76.0339L96.2584 70.2046L100.734 72.4339L117.297 80.7239L129.22 86.6853L138.022 71.5092L126.462 64.9202L110.411 55.755L113.796 49.9092L130.359 58.1826L146.824 66.4229Z" stroke="#0575E6" stroke-width="2" stroke-linecap="round" stroke-linejoin="round"/>
<path d="M117.792 103.38L84.9133 160.105L74.3279 154.821L65.4105 150.362L60.7867 148.05L51.8857 143.591L52.0344 143.344L60.9353 147.802L65.5591 150.114L74.4766 154.573L80.5867 157.628L113.466 100.903L117.792 103.38Z" stroke="#0575E6" stroke-width="2" stroke-linecap="round" stroke-linejoin="round"/>
<path d="M138.022 71.5093L129.22 86.6854L117.661 80.0965L101.609 70.9313L97.2662 68.4542L96.2589 70.2047L92.8735 76.0341L91.9983 77.5203L54.0167 143.063L53.7194 143.559L52.3488 142.783L48.0222 140.306L46.2717 139.315L46.2552 139.298L39.3689 135.385L36.5781 133.783L68.9451 77.9497L74.857 67.7607L75.1873 67.1827L79.1176 60.4286L87.9194 45.2524L88.9267 43.502L110.411 55.7552L126.463 64.9203L138.022 71.5093Z" stroke="#0575E6" stroke-width="2" stroke-linecap="round" stroke-linejoin="round"/>
<path d="M97.4146 78.2966L58.6568 145.309L54.0165 143.064L91.9981 77.5204L92.8734 76.0342L97.3486 78.2635L97.4146 78.2966Z" stroke="#0575E6" stroke-width="2" stroke-linecap="round" stroke-linejoin="round"/>
<path d="M106.679 172.507L73.6513 155.993L64.998 151.072L73.9155 155.531L98.0256 167.586L106.679 172.507Z" stroke="#0575E6" stroke-width="2" stroke-linecap="round" stroke-linejoin="round"/>
<path d="M93.55 165.027L74.0637 155.284L65.1463 150.825L60.5224 148.513L51.8857 143.592L60.7867 148.051L65.4105 150.362L74.3279 154.821L84.9133 160.106L93.55 165.027Z" stroke="#0575E6" stroke-width="2" stroke-linecap="round" stroke-linejoin="round"/>
<path d="M80.5869 157.629L74.4768 154.574L65.5593 150.115L60.9355 147.803L52.0346 143.345L47.5593 141.115L38.9061 136.194L38.9226 136.161L47.8401 140.62V140.636L52.2988 142.866L61.1997 147.324L65.8236 149.653L71.9337 152.708L74.6584 154.26L80.5869 157.629Z" stroke="#0575E6" stroke-width="2" stroke-linecap="round" stroke-linejoin="round"/>
</svg>
