<svg width="76" height="25" viewBox="0 0 76 25" fill="none" xmlns="http://www.w3.org/2000/svg">
<path d="M7.07443 19.4989C5.97561 19.4989 4.96983 19.2537 4.0569 18.7636C3.16103 18.2733 2.46794 17.5802 1.9778 16.6843L2.30737 16.2786V19.1947H0V0H2.35821V8.46887L2.00312 7.8857C2.51033 7.07443 3.20342 6.43198 4.0824 5.95872C4.96139 5.4684 5.96717 5.22343 7.09975 5.22343C8.38446 5.22343 9.53393 5.53612 10.5481 6.1615C11.5793 6.78707 12.3907 7.64072 12.9823 8.72248C13.5739 9.78753 13.8697 11.0045 13.8697 12.3738C13.8697 13.7092 13.5739 14.9179 12.9823 15.9997C12.3907 17.0816 11.5793 17.9353 10.5481 18.5606C9.53393 19.1862 8.37602 19.4989 7.07443 19.4989ZM6.8968 17.2169C7.7589 17.2169 8.52814 17.0055 9.20435 16.5828C9.88038 16.1604 10.4045 15.5855 10.7764 14.8586C11.1651 14.1149 11.3596 13.2866 11.3596 12.3738C11.3596 11.4271 11.1651 10.5988 10.7764 9.88882C10.4045 9.16196 9.88038 8.58723 9.20435 8.16462C8.52814 7.72513 7.7589 7.50548 6.8968 7.50548C6.0347 7.50548 5.25719 7.71669 4.5641 8.1393C3.88789 8.5619 3.3471 9.14508 2.94138 9.88882C2.55253 10.6159 2.35821 11.444 2.35821 12.3738C2.35821 13.2866 2.55253 14.1149 2.94138 14.8586C3.3471 15.5855 3.88789 16.1604 4.5641 16.5828C5.25719 17.0055 6.0347 17.2169 6.8968 17.2169Z" fill="white"/>
<path d="M23.2486 19.4993C21.93 19.4993 20.7552 19.1866 19.7241 18.561C18.693 17.9357 17.8815 17.082 17.2899 16.0001C16.6983 14.9014 16.4025 13.6758 16.4025 12.3236C16.4025 10.9543 16.6899 9.73709 17.2646 8.67222C17.8562 7.60717 18.6506 6.77058 19.6479 6.1619C20.6623 5.53652 21.7949 5.22383 23.0457 5.22383C24.0599 5.22383 24.956 5.40971 25.7335 5.78167C26.528 6.13657 27.1956 6.62689 27.7366 7.25227C28.2944 7.86076 28.717 8.5623 29.0044 9.35687C29.3087 10.1344 29.4608 10.9458 29.4608 11.791C29.4608 11.9769 29.4439 12.1883 29.4101 12.4249C29.3932 12.6447 29.3679 12.8559 29.334 13.0589H18.1267V11.0302H27.9649L26.8492 11.9432C27.0013 11.0642 26.9169 10.2781 26.5956 9.58497C26.2744 8.89188 25.8012 8.34265 25.1756 7.93692C24.5502 7.5312 23.8402 7.32824 23.0457 7.32824C22.2513 7.32824 21.5244 7.5312 20.8651 7.93692C20.2058 8.34265 19.6903 8.92582 19.3184 9.68644C18.9635 10.4302 18.8198 11.3176 18.8873 12.3489C18.8198 13.3462 18.9719 14.2252 19.3437 14.9858C19.7325 15.7296 20.2735 16.3129 20.9666 16.7355C21.6766 17.1411 22.4456 17.344 23.274 17.344C24.1867 17.344 24.9559 17.1327 25.5813 16.71C26.2069 16.2874 26.7139 15.7466 27.1028 15.0873L29.0806 16.1015C28.8101 16.7269 28.3875 17.3018 27.8127 17.8257C27.2549 18.3329 26.5871 18.7387 25.8096 19.0429C25.0488 19.3472 24.1951 19.4993 23.2486 19.4993Z" fill="white"/>
<path d="M32.5347 24.2662V5.52807H34.8421V8.46927L34.5378 7.8861C35.0449 7.07483 35.738 6.43237 36.6169 5.95912C37.4959 5.4688 38.5017 5.22383 39.6343 5.22383C40.919 5.22383 42.0687 5.53652 43.0829 6.1619C44.114 6.78746 44.9254 7.64112 45.517 8.72287C46.1087 9.78793 46.4045 11.0049 46.4045 12.3742C46.4045 13.7096 46.1087 14.9183 45.517 16.0001C44.9254 17.082 44.114 17.9357 43.0829 18.561C42.0687 19.1866 40.9106 19.4993 39.609 19.4993C38.5103 19.4993 37.5044 19.2541 36.5916 18.764C35.6958 18.2737 35.0027 17.5806 34.5123 16.6847L34.8927 16.279V24.2662H32.5347ZM39.4315 17.2172C40.2936 17.2172 41.0627 17.0058 41.7389 16.5832C42.4151 16.1608 42.9392 15.5859 43.311 14.859C43.6998 14.1153 43.8941 13.287 43.8941 12.3742C43.8941 11.4275 43.6998 10.5992 43.311 9.88921C42.9392 9.16236 42.4151 8.58762 41.7389 8.16501C41.0627 7.72552 40.2936 7.50587 39.4315 7.50587C38.5694 7.50587 37.7917 7.71708 37.0988 8.13969C36.4226 8.5623 35.8816 9.14547 35.4759 9.88921C35.0871 10.6163 34.8927 11.4444 34.8927 12.3742C34.8927 13.287 35.0871 14.1153 35.4759 14.859C35.8816 15.5859 36.4226 16.1608 37.0988 16.5832C37.7917 17.0058 38.5694 17.2172 39.4315 17.2172Z" fill="white"/>
<path d="M53.5051 19.4993C52.6093 19.4993 51.8147 19.3387 51.1218 19.0176C50.4456 18.6794 49.913 18.223 49.5242 17.6483C49.1355 17.0567 48.941 16.3805 48.941 15.6198C48.941 14.893 49.0931 14.2421 49.3974 13.6674C49.7187 13.0758 50.2088 12.577 50.8682 12.1713C51.5444 11.7657 52.3894 11.4784 53.4038 11.3092L58.475 10.4726V12.4502L53.9362 13.211C53.0572 13.3631 52.4149 13.642 52.0092 14.0478C51.6204 14.4535 51.426 14.9521 51.426 15.5437C51.426 16.1015 51.6457 16.5664 52.0852 16.9383C52.5417 17.3103 53.108 17.4962 53.7841 17.4962C54.6462 17.4962 55.3901 17.3187 56.0155 16.9636C56.6577 16.5919 57.1565 16.0931 57.5114 15.4677C57.8833 14.8422 58.0692 14.1491 58.0692 13.3884V9.91472C58.0692 9.1708 57.7903 8.57074 57.2324 8.11437C56.6917 7.64111 55.9732 7.4044 55.0772 7.4044C54.2997 7.4044 53.6066 7.60717 52.9981 8.01289C52.4065 8.40174 51.9668 8.92583 51.6795 9.58497L49.6257 8.52009C49.8793 7.89453 50.285 7.33686 50.8429 6.84654C51.4007 6.33952 52.0514 5.94224 52.7951 5.65488C53.5391 5.36751 54.3166 5.22383 55.128 5.22383C56.176 5.22383 57.0974 5.4266 57.8918 5.83232C58.6864 6.22117 59.3033 6.77057 59.7428 7.48055C60.1992 8.17346 60.4274 8.98491 60.4274 9.91472V19.195H58.1201V16.6087L58.5511 16.7609C58.2637 17.3018 57.8749 17.7751 57.3848 18.1808C56.8944 18.5865 56.3197 18.9077 55.6604 19.1442C55.0012 19.3809 54.2828 19.4993 53.5051 19.4993Z" fill="white"/>
<path d="M64.818 24.7753C64.5138 24.7753 64.2093 24.75 63.9051 24.6992C63.6009 24.6485 63.3135 24.5641 63.043 24.4457V22.3411C63.2291 22.3749 63.4572 22.4087 63.7277 22.4426C64.015 22.4933 64.2939 22.5186 64.5644 22.5186C65.359 22.5186 65.9591 22.3411 66.3648 21.9861C66.7874 21.648 67.1845 21.0564 67.5565 20.2112L68.4186 18.1574L68.3679 20.2112L62.536 5.53001H65.097L69.6357 17.1939H68.8749L73.3884 5.53001H76L69.8385 20.8197C69.5511 21.5466 69.1792 22.2059 68.7228 22.7975C68.2833 23.406 67.7423 23.8879 67.1001 24.2428C66.4576 24.5979 65.697 24.7753 64.818 24.7753Z" fill="white"/>
</svg>
