<svg width="180" height="180" viewBox="0 0 180 180" fill="none" xmlns="http://www.w3.org/2000/svg">
<path d="M54.5016 142.066C58.3761 135.4 63.0441 130.473 68.5051 127.315C70.2136 126.339 71.8305 125.637 73.3865 125.226C74.9424 124.814 76.4372 124.646 77.8558 124.692L91.966 100.453L99.6389 87.273V69.4103C96.7253 70.112 94.1778 69.9595 92.0117 68.9679L91.5846 68.7544C90.8219 68.373 90.1051 67.8696 89.4492 67.2594C86.8102 64.834 85.4829 61.0205 85.4829 55.8188C85.4829 49.5493 87.4204 43.0662 91.2949 36.4001C95.1543 29.734 99.8219 24.8222 105.298 21.6645C110.317 18.7662 114.664 18.1103 118.325 19.7425L119.302 20.2306C123.176 22.4272 125.098 26.6679 125.098 32.9527C125.098 38.1544 123.786 43.4781 121.147 48.9544C118.508 54.4306 115.107 59.0679 110.957 62.8815V80.7289L112.986 81.8883L119.942 85.8544L129.644 91.3764L132.604 93.0696C134.022 91.3917 135.532 89.851 137.134 88.4323C138.736 87.0137 140.383 85.8239 142.076 84.8476C147.095 81.9493 151.442 81.2933 155.119 82.9255L156.095 83.4137C159.954 85.6103 161.892 89.8662 161.892 96.1357C161.892 102.405 159.954 108.888 156.095 115.554C152.22 122.236 147.553 127.148 142.076 130.305C136.615 133.463 131.948 133.936 128.073 131.739C124.214 129.527 122.276 125.287 122.276 119.002C122.276 117.065 122.49 115.051 122.917 112.961C123.344 110.871 123.924 108.797 124.686 106.737L122.261 105.349L113.734 100.498L105.298 95.6933L103.27 99.2018L94.6812 114.014L85.91 129.131C86.6728 130.305 87.2524 131.709 87.6795 133.295C88.1066 134.897 88.3204 136.666 88.3204 138.619C88.3204 144.888 86.3831 151.371 82.5237 158.037C78.6492 164.704 73.9814 169.615 68.5051 172.773C63.0441 175.931 58.3761 176.419 54.5016 174.207C50.6422 172.01 48.7053 167.77 48.7053 161.485C48.7053 155.2 50.6422 148.732 54.5016 142.066ZM136.066 117.949C137.729 118.88 139.727 118.681 142.076 117.309C144.441 115.951 146.439 113.846 148.102 111.009C149.749 108.156 150.573 105.38 150.573 102.665C150.573 99.9493 149.749 98.1493 148.102 97.2035C146.439 96.2578 144.441 96.4713 142.076 97.8289C139.727 99.1866 137.729 101.292 136.066 104.144C134.419 106.997 133.595 109.773 133.595 112.473C133.595 115.173 134.419 117.004 136.066 117.949ZM105.298 54.1256C107.663 52.7679 109.661 50.6628 111.308 47.8103C112.956 44.973 113.78 42.1967 113.78 39.4815C113.78 36.7662 112.956 34.951 111.308 34.0205C109.661 33.0747 107.663 33.2883 105.298 34.6459C102.934 36.0035 100.936 38.1086 99.2882 40.9611C97.6407 43.8137 96.8019 46.59 96.8019 49.29C96.8019 51.99 97.6407 53.8205 99.2882 54.7662C100.936 55.6967 102.934 55.4832 105.298 54.1256ZM62.4948 160.417C64.1422 161.363 66.156 161.149 68.5051 159.792C70.8695 158.434 72.8678 156.329 74.5305 153.476C76.178 150.624 77.0016 147.848 77.0016 145.148C77.0016 142.448 76.178 140.617 74.5305 139.671C72.8678 138.741 70.8695 138.954 68.5051 140.312C66.156 141.67 64.1422 143.775 62.4948 146.627C60.8472 149.465 60.0237 152.241 60.0237 154.956C60.0237 157.671 60.8472 159.487 62.4948 160.417Z" stroke="#0575E6" stroke-width="2" stroke-linecap="round" stroke-linejoin="round"/>
<path d="M133.58 112.472C133.58 115.172 134.404 117.003 136.051 117.949C137.714 118.879 139.712 118.681 142.061 117.308C144.425 115.95 146.424 113.845 148.086 111.008C149.734 108.155 150.558 105.379 150.558 102.664C150.558 99.9485 149.734 98.1485 148.086 97.2027C146.424 96.257 144.425 96.4705 142.061 97.8282C139.712 99.1858 137.714 101.291 136.051 104.143C134.404 106.996 133.58 109.772 133.58 112.472Z" stroke="#0575E6" stroke-width="2" stroke-linecap="round" stroke-linejoin="round"/>
<path d="M60.0241 154.956C60.0241 157.656 60.8476 159.486 62.4952 160.417C64.1426 161.363 66.1563 161.149 68.5055 159.791C70.8699 158.434 72.8682 156.329 74.5309 153.476C76.1784 150.624 77.002 147.847 77.002 145.147C77.002 142.447 76.1784 140.617 74.5309 139.671C72.8682 138.741 70.8699 138.954 68.5055 140.312C66.1563 141.669 64.1426 143.775 62.4952 146.627C60.8476 149.464 60.0241 152.241 60.0241 154.956Z" stroke="#0575E6" stroke-width="2" stroke-linecap="round" stroke-linejoin="round"/>
<path d="M96.8015 49.2896C96.8015 51.9896 97.6403 53.8201 99.2878 54.7659C100.935 55.6964 102.933 55.4828 105.298 54.1252C107.662 52.7676 109.66 50.6625 111.308 47.81C112.955 44.9727 113.779 42.1964 113.779 39.4811C113.779 36.7659 112.955 34.9506 111.308 34.0201C109.66 33.0744 107.662 33.2879 105.298 34.6455C102.933 36.0032 100.935 38.1083 99.2878 40.9608C97.6403 43.8133 96.8015 46.5896 96.8015 49.2896Z" stroke="#0575E6" stroke-width="2" stroke-linecap="round" stroke-linejoin="round"/>
<path d="M110.958 69.9742V80.7284L112.987 81.8878L119.943 85.8539L129.644 91.3759L132.604 93.0691C134.023 91.3911 135.533 89.8505 137.134 88.4318C138.736 87.0132 140.383 85.8233 142.077 84.8471C147.095 81.9488 151.443 81.2928 155.119 82.925L125.587 68.1589C121.712 65.9471 117.044 66.4352 111.568 69.5928C111.37 69.7149 111.156 69.8369 110.958 69.9742Z" stroke="#0575E6" stroke-width="2" stroke-linecap="round" stroke-linejoin="round"/>
<path d="M47.3473 109.437L77.8558 124.691L91.966 100.452L99.6389 87.2728L69.1304 72.0186L47.3473 109.437Z" stroke="#0575E6" stroke-width="2" stroke-linecap="round" stroke-linejoin="round"/>
<path d="M18.1965 146.23C18.1965 152.515 20.1334 156.755 23.9928 158.952L54.5012 174.206C50.6419 172.01 48.7049 167.769 48.7049 161.484C48.7049 155.2 50.6419 148.732 54.5012 142.066C58.3758 135.4 63.0438 130.473 68.5048 127.315C70.2133 126.339 71.8302 125.637 73.3861 125.225C74.9421 124.813 76.4368 124.645 77.8555 124.691L47.347 109.437C45.9284 109.391 44.4336 109.559 42.8777 109.971C41.3217 110.383 39.7048 111.084 37.9963 112.061C32.5353 115.218 27.8673 120.145 23.9928 126.812C20.1334 133.478 18.1965 139.961 18.1965 146.23Z" stroke="#0575E6" stroke-width="2" stroke-linecap="round" stroke-linejoin="round"/>
<path d="M69.1304 57.5264V72.0179L99.6389 87.2721V69.4094C96.7253 70.1111 94.1778 69.9586 92.0117 68.967L91.5846 68.7535L80.449 63.1857L69.1304 57.5264Z" stroke="#0575E6" stroke-width="2" stroke-linecap="round" stroke-linejoin="round"/>
<path d="M54.9744 40.5635C54.9744 45.7652 56.3017 49.5787 58.9407 52.0042C59.6271 52.6448 60.3746 53.1482 61.1678 53.5448L61.3507 53.6364L69.1304 57.5262L80.449 63.1855L91.5846 68.7533C90.8219 68.3719 90.1051 67.8686 89.4492 67.2584C86.8102 64.833 85.4829 61.0194 85.4829 55.8177C85.4829 49.5482 87.4204 43.0652 91.2949 36.3991C95.1543 29.733 99.8219 24.8211 105.298 21.6635C110.317 18.7652 114.664 18.1092 118.325 19.7414L88.7934 4.97535C84.9341 2.76348 80.266 3.25162 74.7897 6.40924C69.3134 9.56687 64.6458 14.4787 60.7865 21.1448C56.9119 27.8109 54.9744 34.294 54.9744 40.5635Z" stroke="#0575E6" stroke-width="2" stroke-linecap="round" stroke-linejoin="round"/>
<path d="M94.6812 114.013C95.4745 115.019 96.4358 115.843 97.5646 116.484L128.073 131.738C124.214 129.526 122.276 125.286 122.276 119.001C122.276 117.064 122.49 115.05 122.917 112.96C123.344 110.87 123.924 108.796 124.686 106.737L122.261 105.348L113.734 100.497L105.298 95.6924L103.27 99.201L94.6812 114.013Z" stroke="#0575E6" stroke-width="2" stroke-linecap="round" stroke-linejoin="round"/>
</svg>
