<svg width="180" height="180" viewBox="0 0 180 180" fill="none" xmlns="http://www.w3.org/2000/svg">
<path d="M103.72 119.323V135.424L33.5625 175.93V159.83L103.72 119.323Z" stroke="#0575E6" stroke-width="2" stroke-linecap="round" stroke-linejoin="round"/>
<path d="M68.6412 99.3252V115.426L33.5625 135.68V119.579L68.6412 99.3252Z" stroke="#0575E6" stroke-width="2" stroke-linecap="round" stroke-linejoin="round"/>
<path d="M146.863 68.2433C148.861 63.878 150.349 59.4985 151.341 55.1048C152.334 50.6969 152.83 46.5583 152.83 42.6607C152.83 31.5205 149.414 24.0087 142.568 20.1111L140.895 19.2748C135.864 17.0355 130.11 17.2055 123.618 19.7851C121.733 20.5363 119.777 21.5 117.751 22.6622C114.76 24.3914 111.897 26.4181 109.162 28.7567C103.067 33.93 97.653 40.6056 92.9333 48.7693C87.6467 57.8685 84.4152 66.7835 83.2105 75.4859C82.8561 78.0654 82.6719 80.6166 82.6719 83.1678C82.6719 86.3709 82.9553 89.2764 83.5364 91.8843C84.9254 98.3331 88.0577 102.954 92.9333 105.732C99.7648 109.629 108.042 108.779 117.751 103.18C121.138 101.21 124.497 98.7016 127.842 95.6402C130.776 92.9473 133.497 89.9142 136.02 86.5693C136.374 86.1158 136.7 85.6622 137.04 85.1945L164.055 100.587L173.877 83.6496L146.863 68.2433ZM136.176 64.1331C135.255 66.5426 134.078 68.9662 132.661 71.4181C130.577 75.004 128.281 78.1079 125.744 80.7441C123.292 83.3095 120.628 85.4071 117.751 87.0654C111.897 90.4528 106.936 90.963 102.84 88.6386C100.601 87.363 98.9711 85.4213 97.9648 82.8276C97.1286 80.6874 96.7034 78.1079 96.7034 75.0748C96.7034 72.0418 97.1144 69.0654 97.9223 66.004C98.9286 62.2056 100.573 58.3363 102.84 54.4244C104.768 51.0937 106.894 48.1741 109.233 45.6654C111.812 42.8449 114.661 40.5489 117.751 38.763C119.919 37.5158 121.96 36.6512 123.888 36.1977C127.162 35.3898 130.081 35.73 132.661 37.204C136.757 39.5284 138.798 44.0638 138.798 50.7678C138.798 55.1473 137.933 59.5977 136.176 64.1331Z" stroke="#0575E6" stroke-width="2" stroke-linecap="round" stroke-linejoin="round"/>
<path d="M33.562 159.831V175.932L5.21564 161.759V145.658L33.562 159.831Z" stroke="#0575E6" stroke-width="2" stroke-linecap="round" stroke-linejoin="round"/>
<path d="M103.72 119.324L33.562 159.83L5.21564 145.657L27.6376 132.717L33.562 135.68L68.6408 115.426V109.034L75.3731 105.15L103.72 119.324Z" stroke="#0575E6" stroke-width="2" stroke-linecap="round" stroke-linejoin="round"/>
<path d="M33.562 119.579V135.679L27.6376 132.717L5.21564 121.506V105.405L33.562 119.579Z" stroke="#0575E6" stroke-width="2" stroke-linecap="round" stroke-linejoin="round"/>
<path d="M68.6408 59.0736L68.414 59.2012L54.3542 67.3224L33.562 79.3272L20.1542 72.6232L5.21564 65.1539L40.2943 44.9004L56.6077 53.05L68.4282 58.9602L68.6408 59.0736Z" stroke="#0575E6" stroke-width="2" stroke-linecap="round" stroke-linejoin="round"/>
<path d="M68.6412 59.0732V75.174L56.5373 82.1614L46.2192 88.1142L40.2948 91.5441L33.5625 95.4276V79.3268L54.3546 67.3221L68.4145 59.2008L68.6412 59.0732Z" stroke="#0575E6" stroke-width="2" stroke-linecap="round" stroke-linejoin="round"/>
<path d="M138.798 50.7676C138.798 55.1471 137.934 59.5975 136.176 64.1329C135.255 66.5424 134.079 68.966 132.661 71.418C130.578 75.0038 128.282 78.1077 125.745 80.744C123.293 83.3093 120.628 85.407 117.751 87.0652C111.898 90.4526 106.937 90.9629 102.841 88.6385C100.602 87.3629 98.9716 85.4211 97.9653 82.8274C97.1291 80.6873 96.7039 78.1077 96.7039 75.0747C96.7039 72.0416 97.1149 69.0652 97.9228 66.0038C100.261 63.4951 102.387 60.5755 104.315 57.2447C106.583 53.3329 108.227 49.4778 109.233 45.6652C111.813 42.8448 114.661 40.5487 117.751 38.7629C119.92 37.5156 121.961 36.651 123.888 36.1975C127.162 35.3896 130.082 35.7298 132.661 37.2038C136.757 39.5282 138.798 44.0636 138.798 50.7676Z" stroke="#0575E6" stroke-width="2" stroke-linecap="round" stroke-linejoin="round"/>
<path d="M140.896 19.2747C135.865 17.0353 130.11 17.2054 123.619 19.7849C121.734 20.5361 119.778 21.4999 117.751 22.6621C114.761 24.3912 111.898 26.418 109.162 28.7566C103.068 33.9298 97.6536 40.6054 92.934 48.7692C87.6473 57.8684 84.4158 66.7834 83.2111 75.4857C82.8568 78.0653 82.6725 80.6164 82.6725 83.1676C82.6725 86.3708 82.956 89.2763 83.5371 91.8842C84.9261 98.333 88.0584 102.953 92.934 105.731L66.2599 92.3944L64.5875 91.5582C60.9166 89.4747 58.2379 86.3283 56.5371 82.1613L68.641 75.1739V59.0731L68.4284 58.9597L56.608 53.0495C58.3088 46.9834 60.9592 40.8322 64.5875 34.596C71.419 22.7897 79.6962 14.0873 89.4048 8.48892C99.1135 2.8905 107.376 2.04012 114.222 5.93776L140.896 19.2747Z" stroke="#0575E6" stroke-width="2" stroke-linecap="round" stroke-linejoin="round"/>
<path d="M164.055 100.586L136.02 86.5691C136.375 86.1156 136.701 85.6621 137.041 85.1943L164.055 100.586Z" stroke="#0575E6" stroke-width="2" stroke-linecap="round" stroke-linejoin="round"/>
<path d="M33.562 79.3265V95.4273L27.6376 92.4651L5.21564 81.2541V65.1533L20.1542 72.6226L33.562 79.3265Z" stroke="#0575E6" stroke-width="2" stroke-linecap="round" stroke-linejoin="round"/>
<path d="M68.6408 99.3253L33.562 119.579L5.21564 105.406L27.6376 92.4654L33.562 95.4276L40.2943 91.5442L46.2187 88.1143L68.6408 99.3253Z" stroke="#0575E6" stroke-width="2" stroke-linecap="round" stroke-linejoin="round"/>
</svg>
