<svg width="24" height="24" viewBox="0 0 24 24" fill="none" xmlns="http://www.w3.org/2000/svg">
<path fill-rule="evenodd" clip-rule="evenodd" d="M9.03009 8.49773H13.3204V10.6348C13.9385 9.4057 15.5234 8.30135 17.9042 8.30135C22.4683 8.30135 23.5519 10.748 23.5519 15.2371V23.5509H18.9312V16.2594C18.9312 13.703 18.3131 12.2613 16.7398 12.2613C14.5576 12.2613 13.6508 13.815 13.6508 16.2582V23.5509H9.03009V8.49773ZM1.1067 23.3545H5.72742V8.30135H1.1067V23.3545ZM6.38934 3.39298C6.38951 3.78028 6.3127 4.16376 6.16337 4.52112C6.01405 4.87847 5.79518 5.20259 5.51949 5.47462C5.24299 5.74969 4.91499 5.96758 4.55425 6.11584C4.1935 6.2641 3.80708 6.33983 3.41706 6.33869C2.63108 6.33693 1.8771 6.02713 1.31694 5.47577C1.04235 5.20274 0.824291 4.87825 0.675231 4.52086C0.526171 4.16348 0.449037 3.78021 0.448242 3.39298C0.448242 2.61092 0.760141 1.86236 1.31809 1.31019C1.87686 0.756719 2.63174 0.446545 3.41822 0.447267C4.20605 0.447267 4.96154 0.758011 5.51949 1.31019C6.07744 1.86236 6.38934 2.61092 6.38934 3.39298Z" fill="white"/>
</svg>
