<svg width="42" height="42" viewBox="0 0 42 42" fill="none" xmlns="http://www.w3.org/2000/svg">
<path d="M16.625 38.5H25.375M17.5 17.5H24.5M21 17.5V28M26.25 26.8212C30.3886 24.8551 33.25 20.6367 33.25 15.75C33.25 8.98452 27.7655 3.5 21 3.5C14.2345 3.5 8.75 8.98452 8.75 15.75C8.75 20.6367 11.6113 24.8551 15.75 26.8212V28C15.75 29.6308 15.75 30.4462 16.0164 31.0895C16.3717 31.947 17.053 32.6284 17.9106 32.9837C18.5539 33.25 19.3692 33.25 21 33.25C22.6308 33.25 23.4462 33.25 24.0895 32.9837C24.947 32.6284 25.6284 31.947 25.9837 31.0895C26.25 30.4462 26.25 29.6308 26.25 28V26.8212Z" stroke="white" stroke-width="3" stroke-linecap="round" stroke-linejoin="round"/>
</svg>
