<svg width="66" height="22" viewBox="0 0 66 22" fill="none" xmlns="http://www.w3.org/2000/svg">
<path d="M6.1435 16.933C5.18928 16.933 4.31585 16.7201 3.52305 16.2945C2.74507 15.8687 2.14318 15.2668 1.71754 14.4888L2.00375 14.1365V16.6688H0V0H2.04789V7.35445L1.73953 6.84802C2.17999 6.14351 2.78188 5.5856 3.5452 5.17461C4.30852 4.74882 5.18195 4.53608 6.16549 4.53608C7.28115 4.53608 8.27935 4.80762 9.16012 5.35071C10.0555 5.89396 10.7602 6.63528 11.274 7.57469C11.7877 8.49959 12.0446 9.55644 12.0446 10.7456C12.0446 11.9052 11.7877 12.9549 11.274 13.8943C10.7602 14.8338 10.0555 15.5752 9.16012 16.1183C8.27935 16.6615 7.27382 16.933 6.1435 16.933ZM5.98925 14.9513C6.7379 14.9513 7.40592 14.7677 7.99315 14.4007C8.58022 14.0339 9.03534 13.5346 9.35836 12.9034C9.69587 12.2575 9.86479 11.5382 9.86479 10.7456C9.86479 9.92344 9.69587 9.2041 9.35836 8.58755C9.03534 7.95634 8.58022 7.45723 7.99315 7.09024C7.40592 6.70858 6.7379 6.51783 5.98925 6.51783C5.24059 6.51783 4.5654 6.70125 3.96351 7.06825C3.37628 7.43524 2.90666 7.94168 2.55432 8.58755C2.21664 9.21892 2.04789 9.9381 2.04789 10.7456C2.04789 11.5382 2.21664 12.2575 2.55432 12.9034C2.90666 13.5346 3.37628 14.0339 3.96351 14.4007C4.5654 14.7677 5.24059 14.9513 5.98925 14.9513Z" fill="#080808"/>
<path d="M20.1909 16.9331C19.0458 16.9331 18.0256 16.6615 17.1302 16.1183C16.2347 15.5752 15.5301 14.8339 15.0163 13.8943C14.5025 12.9402 14.2457 11.8759 14.2457 10.7016C14.2457 9.5125 14.4952 8.45548 14.9943 7.53074C15.5081 6.60584 16.1979 5.87933 17.064 5.35075C17.945 4.80766 18.9285 4.53612 20.0147 4.53612C20.8954 4.53612 21.6736 4.69754 22.3488 5.02056C23.0388 5.32875 23.6185 5.75455 24.0883 6.29763C24.5727 6.82606 24.9397 7.43528 25.1893 8.12529C25.4535 8.80048 25.5856 9.50516 25.5856 10.2392C25.5856 10.4006 25.571 10.5842 25.5416 10.7896C25.527 10.9805 25.505 11.1639 25.4755 11.3401H15.743V9.57846H24.2865L23.3177 10.3713C23.4498 9.60794 23.3765 8.92527 23.0974 8.32338C22.8186 7.72149 22.4076 7.24453 21.8643 6.8922C21.3212 6.53986 20.7047 6.36361 20.0147 6.36361C19.3248 6.36361 18.6936 6.53986 18.1211 6.8922C17.5485 7.24453 17.1008 7.75097 16.7778 8.4115C16.4696 9.05737 16.3449 9.82802 16.4035 10.7236C16.3449 11.5897 16.477 12.353 16.7998 13.0136C17.1375 13.6594 17.6073 14.166 18.2092 14.533C18.8257 14.8852 19.4936 15.0614 20.2129 15.0614C21.0056 15.0614 21.6736 14.8779 22.2167 14.5109C22.7599 14.1439 23.2002 13.6742 23.5379 13.1017L25.2554 13.9824C25.0205 14.5255 24.6535 15.0248 24.1544 15.4797C23.67 15.9202 23.0901 16.2725 22.4149 16.5368C21.7542 16.801 21.0129 16.9331 20.1909 16.9331Z" fill="#080808"/>
<path d="M28.2554 21.0727V4.80032H30.2592V7.35449L29.995 6.84806C30.4353 6.14354 31.0371 5.58563 31.8005 5.17465C32.5638 4.74885 33.4372 4.53612 34.4208 4.53612C35.5364 4.53612 36.5348 4.80766 37.4155 5.35075C38.311 5.89399 39.0156 6.63532 39.5294 7.57472C40.0432 8.49963 40.3 9.55648 40.3 10.7456C40.3 11.9052 40.0432 12.9549 39.5294 13.8943C39.0156 14.8339 38.311 15.5752 37.4155 16.1183C36.5348 16.6615 35.5291 16.9331 34.3988 16.9331C33.4447 16.9331 32.5711 16.7202 31.7785 16.2945C31.0005 15.8687 30.3986 15.2669 29.9728 14.4889L30.3032 14.1365V21.0727H28.2554ZM34.2447 14.9513C34.9933 14.9513 35.6612 14.7677 36.2484 14.4007C36.8356 14.0339 37.2908 13.5346 37.6136 12.9034C37.9513 12.2576 38.1201 11.5382 38.1201 10.7456C38.1201 9.92348 37.9513 9.20413 37.6136 8.58758C37.2908 7.95637 36.8356 7.45727 36.2484 7.09027C35.6612 6.70861 34.9933 6.51787 34.2447 6.51787C33.496 6.51787 32.8207 6.70128 32.2189 7.06828C31.6317 7.43528 31.1619 7.94171 30.8096 8.58758C30.4719 9.21895 30.3032 9.93814 30.3032 10.7456C30.3032 11.5382 30.4719 12.2576 30.8096 12.9034C31.1619 13.5346 31.6317 14.0339 32.2189 14.4007C32.8207 14.7677 33.496 14.9513 34.2447 14.9513Z" fill="#080808"/>
<path d="M46.4647 16.9331C45.6867 16.9331 44.9967 16.7936 44.3949 16.5148C43.8077 16.2211 43.3453 15.8248 43.0076 15.3256C42.6701 14.8119 42.5012 14.2247 42.5012 13.5641C42.5012 12.9329 42.6333 12.3677 42.8975 11.8686C43.1765 11.3548 43.6021 10.9217 44.1747 10.5693C44.7619 10.2172 45.4958 9.96761 46.3767 9.82069L50.7805 9.09418V10.8116L46.839 11.4723C46.0757 11.6044 45.5179 11.8466 45.1656 12.1989C44.8279 12.5513 44.6592 12.9842 44.6592 13.498C44.6592 13.9824 44.8499 14.3861 45.2316 14.7091C45.628 15.0321 46.1198 15.1935 46.7069 15.1935C47.4555 15.1935 48.1016 15.0394 48.6447 14.7311C49.2024 14.4082 49.6355 13.9751 49.9437 13.432C50.2667 12.8888 50.4282 12.2869 50.4282 11.6264V8.60974C50.4282 7.96371 50.186 7.44261 49.7015 7.04629C49.2319 6.63531 48.608 6.42975 47.8299 6.42975C47.1547 6.42975 46.5528 6.60583 46.0244 6.95817C45.5106 7.29585 45.1288 7.75097 44.8792 8.32338L43.0957 7.39863C43.3159 6.85538 43.6683 6.3711 44.1527 5.9453C44.6372 5.505 45.2022 5.16 45.8481 4.91045C46.4941 4.66089 47.1693 4.53612 47.874 4.53612C48.7841 4.53612 49.5842 4.7122 50.2741 5.06454C50.9641 5.40222 51.4998 5.87933 51.8815 6.49588C52.2778 7.09761 52.4761 7.80228 52.4761 8.60974V16.6689H50.4723V14.4229L50.8466 14.555C50.5971 15.0248 50.2594 15.4358 49.8338 15.7881C49.408 16.1404 48.9089 16.4193 48.3363 16.6247C47.7639 16.8303 47.14 16.9331 46.4647 16.9331Z" fill="#080808"/>
<path d="M56.2895 21.5133C56.0253 21.5133 55.7609 21.4913 55.4967 21.4472C55.2325 21.4032 54.9829 21.3299 54.748 21.2271V19.3994C54.9096 19.4288 55.1077 19.4581 55.3426 19.4876C55.5922 19.5315 55.8344 19.5535 56.0693 19.5535C56.7593 19.5535 57.2804 19.3994 57.6327 19.0911C57.9997 18.7975 58.3446 18.2838 58.6676 17.5498L59.4162 15.7663L59.3722 17.5498L54.3077 4.80048H56.5317L60.4732 14.9295H59.8125L63.7321 4.80048H66L60.6493 18.0782C60.3998 18.7094 60.0768 19.282 59.6804 19.7957C59.2988 20.3242 58.829 20.7426 58.2712 21.0508C57.7133 21.3592 57.0528 21.5133 56.2895 21.5133Z" fill="#080808"/>
</svg>
