<svg width="180" height="180" viewBox="0 0 180 180" fill="none" xmlns="http://www.w3.org/2000/svg">
<path d="M122.672 123.75V136.849L54.2422 176.359V163.258L122.672 123.75Z" stroke="#0575E6" stroke-width="2" stroke-linecap="round" stroke-linejoin="round"/>
<path d="M122.672 103.633V110.666L110.526 117.685L54.2422 150.176V137.092L92.4202 115.053L98.3798 111.604L107.849 106.144C110.042 106.401 112.356 106.34 114.837 105.947C117.303 105.569 119.919 104.798 122.672 103.633Z" stroke="#0575E6" stroke-width="2" stroke-linecap="round" stroke-linejoin="round"/>
<path d="M148.554 20.2271L147.314 19.6068C142.004 17.1867 135.697 18.0792 128.376 22.3145C127.786 22.6473 127.211 23.0102 126.636 23.3732C119.497 27.9262 113.356 34.6423 108.213 43.5213C106.473 46.5162 105.006 49.4959 103.811 52.4455C101.179 58.9194 99.8633 65.2725 99.8633 71.4893V71.5648C99.8784 80.5648 102.662 86.6608 108.213 89.8221C113.764 92.9986 120.495 92.3028 128.376 87.7498C136.272 83.1969 142.988 76.1179 148.554 66.528C154.12 56.9381 156.888 47.6204 156.888 38.5599C156.888 29.4994 154.12 23.4036 148.554 20.2271ZM124.383 72.049L112.267 65.1514L116.003 58.5413L116.26 58.1026L124.383 62.7314L140.492 34.9448L144.485 37.2137L124.383 72.049Z" stroke="#0575E6" stroke-width="2" stroke-linecap="round" stroke-linejoin="round"/>
<path d="M144.485 37.2142L124.383 72.0497L112.267 65.152L116.003 58.5419L124.383 62.7319L140.492 34.9453L144.485 37.2142Z" stroke="#0575E6" stroke-width="2" stroke-linecap="round" stroke-linejoin="round"/>
<path d="M54.2426 163.26V176.36L23.9904 161.234V148.134L54.2426 163.26Z" stroke="#0575E6" stroke-width="2" stroke-linecap="round" stroke-linejoin="round"/>
<path d="M122.673 123.75L54.2426 163.259L23.9904 148.133L36.1367 141.115L48.2979 147.195L54.2426 150.175L110.527 117.685L122.673 123.75Z" stroke="#0575E6" stroke-width="2" stroke-linecap="round" stroke-linejoin="round"/>
<path d="M107.849 106.143L98.3803 111.604L92.4206 115.052L54.2426 137.091L48.2828 134.111L36.1367 128.031L23.9904 121.965L36.1367 114.947L48.2828 121.027L54.2426 124.007L95.582 100.138C95.5063 100.062 95.4458 99.9868 95.3853 99.9111L107.849 106.143Z" stroke="#0575E6" stroke-width="2" stroke-linecap="round" stroke-linejoin="round"/>
<path d="M54.2426 110.923V124.007L48.2828 121.027L36.1367 114.947L23.9904 108.881V95.7969L36.1367 101.862L48.2828 107.943L54.2426 110.923Z" stroke="#0575E6" stroke-width="2" stroke-linecap="round" stroke-linejoin="round"/>
<path d="M147.314 19.6069C142.005 17.1867 135.697 18.0793 128.376 22.3146C127.786 22.6474 127.211 23.0103 126.637 23.3733C119.497 27.9262 113.356 34.6423 108.213 43.5213C106.474 46.5163 105.006 49.496 103.811 52.4455C101.179 58.9195 99.8634 65.2726 99.8634 71.4894V71.5649C99.8786 80.5649 102.662 86.6608 108.213 89.8222L79.2012 75.3161L77.9609 74.6961C72.3945 71.5197 69.6113 65.4087 69.6113 56.3633C69.6113 47.318 72.3945 37.9852 77.9609 28.3953C83.5122 18.8054 90.2433 11.7415 98.1239 7.18852C106.02 2.62046 112.736 1.93977 118.302 5.10111L147.314 19.6069Z" stroke="#0575E6" stroke-width="2" stroke-linecap="round" stroke-linejoin="round"/>
<path d="M54.2426 137.092V150.176L48.2979 147.196L36.1367 141.115L23.9904 135.05V121.966L36.1367 128.031L48.2828 134.112L54.2426 137.092Z" stroke="#0575E6" stroke-width="2" stroke-linecap="round" stroke-linejoin="round"/>
<path d="M95.5815 100.139L54.2422 124.008V110.924L83.5412 93.9978L90.1666 90.1709C90.817 92.1222 91.558 93.9371 92.3748 95.5707C92.4051 95.6161 92.4202 95.6766 92.4504 95.722C93.2521 97.3102 94.2202 98.7018 95.3698 99.8968C95.4303 99.9876 95.4908 100.063 95.5664 100.139H95.5815Z" stroke="#0575E6" stroke-width="2" stroke-linecap="round" stroke-linejoin="round"/>
<path d="M90.167 90.171L83.5416 93.9979L54.2426 110.924L48.2828 107.944L36.1367 101.863L23.9904 95.7979L59.9149 75.0449L90.167 90.171Z" stroke="#0575E6" stroke-width="2" stroke-linecap="round" stroke-linejoin="round"/>
<path d="M122.673 103.633C119.92 104.798 117.303 105.569 114.837 105.947C112.357 106.34 110.042 106.401 107.849 106.144L95.3853 99.9117C94.2357 98.7016 93.2677 97.31 92.466 95.7218C92.4357 95.6764 92.4206 95.6159 92.3904 95.5705C91.5736 93.9369 90.8324 92.122 90.182 90.1707L89.2441 89.7016C90.2878 89.3689 91.3467 88.9606 92.4357 88.5068L122.688 103.633H122.673Z" stroke="#0575E6" stroke-width="2" stroke-linecap="round" stroke-linejoin="round"/>
</svg>
