<svg width="130" height="38" viewBox="0 0 130 38" fill="none" xmlns="http://www.w3.org/2000/svg">
<path d="M1.20516 3.1447C1.20516 3.1447 1.67897 3.01079 2.6266 2.74298C3.57933 2.47827 4.40905 2.2249 5.11576 1.98288C5.82514 1.74108 6.67515 1.5349 7.66578 1.36433C8.6593 1.19132 9.6636 1.01786 10.6787 0.843938C11.6964 0.670235 12.7927 0.552507 13.9676 0.490754C15.1425 0.429 16.2512 0.373868 17.2935 0.325356C18.3385 0.277063 19.3618 0.232343 20.3633 0.191197C21.3648 0.15005 22.3059 0.12538 23.1867 0.117186C24.0674 0.108992 24.9743 0.1257 25.9073 0.167308C26.8401 0.211576 27.7499 0.257978 28.6368 0.306514C29.5207 0.357492 30.702 0.463617 32.1806 0.624889C33.6592 0.786161 34.9557 0.92716 36.0701 1.04789C37.1873 1.16617 38.3805 1.29068 39.6497 1.4214C40.9217 1.54969 42.1953 1.67542 43.4704 1.79861C44.7456 1.92179 46.1435 2.05236 47.6643 2.19031C49.1878 2.32847 50.5489 2.45066 51.7476 2.55688C52.9434 2.66553 54.3569 2.85226 55.988 3.11707C57.6192 3.38187 59.2349 3.67086 60.8352 3.98401C62.4382 4.29739 64.0379 4.652 65.6341 5.04783C67.2328 5.44654 68.7944 5.85694 70.3187 6.27901C71.8428 6.70375 73.4984 7.14461 75.2856 7.6016C77.07 8.05837 78.6527 8.50531 80.0336 8.94241C81.412 9.37664 82.9347 9.88427 84.6017 10.4653C86.2658 11.0488 87.7235 11.5792 88.975 12.0566C90.2265 12.534 91.5955 13.0678 93.0819 13.6582C94.5683 14.2485 96.0731 14.827 97.5964 15.3936C99.1194 15.9628 100.421 16.4804 101.502 16.9465C102.582 17.4153 103.65 17.8976 104.704 18.3937C105.761 18.8872 106.723 19.2967 107.59 19.6221C108.457 19.9448 109.297 20.2788 110.112 20.6239C110.926 20.9691 111.637 21.2724 112.247 21.5338C112.855 21.7979 113.435 22.0918 113.986 22.4153C114.536 22.7389 115.211 23.1329 116.01 23.5973C116.809 24.0617 117.522 24.495 118.149 24.8972C118.776 25.2993 119.508 25.8145 120.345 26.4426C121.179 27.0732 121.638 27.4964 121.722 27.7122C121.806 27.9279 121.855 28.1515 121.868 28.3829C121.879 28.614 121.852 28.8408 121.788 29.0632C121.724 29.2855 121.627 29.4931 121.496 29.6859C121.365 29.876 121.206 30.0411 121.021 30.1812C120.835 30.3186 120.632 30.4238 120.411 30.4967C120.191 30.5697 119.964 30.6047 119.73 30.6017C119.497 30.6013 119.271 30.564 119.051 30.4898C118.832 30.4129 118.631 30.304 118.446 30.1631C118.262 30.0221 118.105 29.8553 117.976 29.6627C117.847 29.4674 117.753 29.2588 117.693 29.037C117.631 28.8124 117.608 28.5842 117.625 28.3526C117.638 28.1208 117.689 27.8973 117.776 27.6822C117.863 27.4698 117.982 27.2747 118.134 27.097C118.285 26.9219 118.461 26.7756 118.661 26.6582C118.861 26.5407 119.074 26.4577 119.301 26.4093C119.528 26.361 119.757 26.3503 119.988 26.3772C120.219 26.4042 120.439 26.4664 120.649 26.5639C120.858 26.6641 121.047 26.7934 121.217 26.9518C121.383 27.1128 121.52 27.2967 121.626 27.5035C121.736 27.708 121.808 27.9254 121.842 28.1558C121.88 28.3839 121.879 28.6127 121.839 28.8424C121.799 29.0694 121.724 29.2855 121.616 29.4909C121.506 29.6934 121.365 29.8747 121.194 30.0347C121.025 30.1922 120.835 30.3186 120.623 30.4137C120.411 30.5088 120.191 30.5684 119.961 30.5924C119.728 30.6162 119.498 30.6027 119.272 30.552C119.045 30.4987 118.834 30.4117 118.637 30.2912C118.438 30.1704 118.263 30.0209 118.114 29.8427C117.965 29.6671 117.89 29.5794 117.89 29.5794C117.89 29.5794 117.793 29.5419 117.598 29.467C117.405 29.3923 117.091 29.1283 116.656 28.675C116.218 28.2241 115.663 27.7367 114.989 27.213C114.313 26.6916 113.609 26.1092 112.878 25.4656C112.15 24.8222 111.524 24.3304 110.999 23.9902C110.471 23.6498 109.835 23.2777 109.09 22.8739C108.342 22.4699 107.539 22.0627 106.679 21.6522C105.819 21.2443 104.871 20.7972 103.834 20.3106C102.801 19.8243 101.759 19.3548 100.71 18.902C99.663 18.4494 98.3715 17.9366 96.8353 17.3636C95.2992 16.7906 93.7917 16.2119 92.3129 15.6276C90.8342 15.0405 89.4783 14.5117 88.245 14.0412C87.0144 13.5709 85.5759 13.0501 83.9297 12.4788C82.2836 11.9048 80.7896 11.4076 79.4476 10.987C78.1055 10.5665 76.5342 10.1285 74.7335 9.67311C72.9331 9.21503 71.2797 8.77971 69.7734 8.36714C68.2673 7.95191 66.7328 7.55445 65.1701 7.17475C63.6077 6.7924 62.0364 6.45216 60.4563 6.15405C58.8762 5.85593 57.2979 5.58475 55.7214 5.34049C54.1449 5.09622 52.7579 4.9304 51.5603 4.84303C50.3603 4.75277 48.9974 4.65319 47.4715 4.54428C45.9486 4.43293 44.548 4.33429 43.2698 4.24834C41.9916 4.16239 40.7157 4.08066 39.4422 4.00313C38.1687 3.9256 36.9724 3.85573 35.8532 3.79352C34.7312 3.73375 33.4326 3.66756 31.9575 3.59493C30.4821 3.52497 29.3089 3.45164 28.4378 3.37493C27.5666 3.29823 26.6829 3.22852 25.7865 3.16581C24.8927 3.10332 24.0346 3.0491 23.2119 3.00314C22.389 2.95984 21.4837 2.95665 20.496 2.99357C19.5083 3.03049 18.5061 3.07962 17.4895 3.14095C16.4727 3.20494 15.4374 3.29822 14.3837 3.42077C13.3299 3.54332 12.2892 3.71916 11.2615 3.94828C10.2337 4.18006 9.28673 4.37429 8.42065 4.53096C7.55213 4.68475 6.75337 4.85496 6.02436 5.0416C5.29269 5.22803 4.45495 5.46467 3.51113 5.75153C2.56465 6.03818 2.0288 6.19244 1.90358 6.21432C1.77836 6.23619 1.65179 6.24189 1.52386 6.23142C1.39859 6.22116 1.27585 6.19638 1.15564 6.15707C1.03299 6.1149 0.91809 6.05996 0.810941 5.99228C0.703793 5.92459 0.60562 5.84559 0.516424 5.75528C0.427445 5.66231 0.351223 5.561 0.287757 5.45137C0.221626 5.34153 0.170807 5.2249 0.135301 5.1015C0.0995768 4.98075 0.0789474 4.85589 0.0734129 4.7269C0.0676604 4.60058 0.0778996 4.47557 0.10413 4.35186C0.127696 4.22794 0.167035 4.10799 0.222149 3.99201C0.277044 3.87868 0.34483 3.77177 0.425506 3.67127C0.505965 3.57343 0.597655 3.48588 0.700577 3.40863C0.800832 3.33115 0.91066 3.26785 1.03006 3.21872C1.14679 3.16937 1.20516 3.1447 1.20516 3.1447Z" fill="white"/>
<path d="M112.765 8.36979C112.765 8.36979 112.962 8.63761 113.356 9.17325C113.746 9.70866 114.297 10.3871 115.008 11.2084C115.722 12.0274 116.375 12.8667 116.967 13.7266C117.557 14.5862 118.1 15.3551 118.597 16.0331C119.092 16.7109 119.554 17.3526 119.985 17.9582C120.413 18.5663 120.913 19.2901 121.486 20.1296C122.055 20.9715 122.517 21.6547 122.871 22.179C123.225 22.7034 123.601 23.1948 123.998 23.653C124.395 24.1113 124.766 24.5808 125.11 25.0616C125.455 25.5396 125.824 26.1242 126.218 26.8152C126.616 27.5037 126.957 28.1221 127.242 28.6703C127.53 29.2187 127.737 29.5717 127.863 29.7293C127.99 29.887 128.137 30.041 128.304 30.1912C128.475 30.3417 128.623 30.5105 128.75 30.6977C128.877 30.8821 128.98 31.0807 129.059 31.2934C129.139 31.5034 129.191 31.7205 129.215 31.9448C129.243 32.1692 129.242 32.3941 129.212 32.6193C129.183 32.8419 129.128 33.0582 129.047 33.2684C128.965 33.4787 128.859 33.6762 128.728 33.8609C128.601 34.0459 128.451 34.2131 128.281 34.3625C128.11 34.5119 127.924 34.6372 127.723 34.7385C127.524 34.8427 127.313 34.9219 127.092 34.976C126.873 35.0277 126.651 35.0524 126.425 35.05C126.197 35.0501 125.974 35.0224 125.756 34.9671C125.538 34.9117 125.329 34.8303 125.128 34.7228C124.93 34.6182 125.185 34.6445 125.894 34.8017C126.606 34.9617 126.67 35.0673 126.086 35.1186C125.502 35.1672 124.843 35.1681 124.109 35.1214C123.375 35.0746 122.696 35.0471 122.072 35.0388C121.45 35.0281 120.785 35.0445 120.075 35.0882C119.368 35.1347 118.303 35.2041 116.879 35.2963C115.457 35.3887 114.269 35.4923 113.316 35.607C112.364 35.7245 111.504 35.8562 110.736 36.0021C109.97 36.1456 109.101 36.2512 108.13 36.3189C107.156 36.3837 106.277 36.4684 105.493 36.5729C104.712 36.6776 103.779 36.7966 102.695 36.9301C101.61 37.0635 100.685 37.1525 99.9198 37.1969C99.1515 37.241 98.456 37.2644 97.8333 37.267C97.2132 37.2697 96.6034 37.2626 96.0038 37.2456C95.4039 37.2313 94.8721 37.3029 94.4085 37.4604C93.945 37.6152 93.5765 37.6922 93.3029 37.6912C93.0293 37.6902 92.762 37.6455 92.5009 37.5572C92.2425 37.4691 92.0047 37.3412 91.7877 37.1734C91.5678 37.0082 91.3826 36.8123 91.2322 36.5857C91.079 36.3589 90.9664 36.1127 90.8942 35.8471C90.8218 35.5841 90.7929 35.3153 90.8073 35.0407C90.8242 34.7689 90.8833 34.506 90.9846 34.2519C91.0886 33.998 91.2296 33.7672 91.4076 33.5595C91.5856 33.3519 91.7916 33.1786 92.0257 33.0398C92.2626 32.8986 92.515 32.7987 92.7827 32.7403C93.0502 32.6846 93.3196 32.6718 93.5908 32.7021C93.8647 32.7326 94.1256 32.8061 94.3736 32.9228C94.6219 33.0369 94.8455 33.1891 95.0446 33.3795C95.2412 33.5669 95.4033 33.7824 95.531 34.0258C95.6588 34.2666 95.7452 34.5227 95.79 34.7941C95.8322 35.0653 95.8302 35.3356 95.784 35.6049C95.7404 35.8745 95.6538 36.1298 95.524 36.3709C95.3943 36.612 95.2292 36.8261 95.0287 37.0131C94.8282 37.2002 94.604 37.3506 94.3559 37.4641C94.1078 37.5777 93.847 37.6487 93.5737 37.6772C93.3004 37.7057 93.0306 37.6903 92.7645 37.631C92.4957 37.5715 92.2437 37.4705 92.0085 37.3281C91.776 37.1859 91.5704 37.0097 91.3917 36.7996C91.2157 36.5897 91.0778 36.3575 90.9779 36.103C90.878 35.8484 90.8204 35.5853 90.8051 35.3136C90.7927 35.0395 90.824 34.7716 90.8991 34.51C90.9717 34.2455 91.0857 34.0004 91.241 33.7748C91.3963 33.5493 91.5827 33.3543 91.8001 33.19C92.0201 33.026 92.2599 32.8997 92.5193 32.8111C92.7812 32.7255 92.9122 32.6827 92.9122 32.6827C92.9095 32.6824 93.1119 32.6361 93.5193 32.5436C93.9242 32.4482 94.5556 32.4049 95.4135 32.4136C96.2743 32.4198 97.0747 32.4747 97.8148 32.5781C98.5552 32.6789 99.2216 32.7482 99.8142 32.7861C100.404 32.8263 101.199 32.8205 102.198 32.7684C103.201 32.7167 104.126 32.6184 104.975 32.4738C105.827 32.3293 106.653 32.2015 107.454 32.0903C108.254 31.9818 109.049 31.83 109.837 31.6349C110.629 31.44 111.492 31.2188 112.427 30.9714C113.363 30.724 114.589 30.4147 116.106 30.0436C117.625 29.6727 118.707 29.4668 119.352 29.4258C119.999 29.3825 120.846 29.3621 121.892 29.3648C122.939 29.3675 123.769 29.4207 124.383 29.5246C124.999 29.6287 125.765 29.7275 126.681 29.8213C127.596 29.9176 128.137 30.041 128.304 30.1912C128.472 30.3415 128.62 30.5103 128.75 30.6977C128.877 30.8821 128.98 31.0807 129.059 31.2934C129.136 31.5031 129.188 31.7203 129.215 31.9448C129.24 32.169 129.239 32.3939 129.212 32.6193C129.183 32.8419 129.128 33.0582 129.047 33.2684C128.965 33.4787 128.859 33.6762 128.728 33.8609C128.601 34.0459 128.451 34.2131 128.281 34.3625C128.11 34.5119 127.924 34.6372 127.723 34.7385C127.524 34.8427 127.313 34.9219 127.092 34.976C126.873 35.0277 126.651 35.0524 126.425 35.05C126.2 35.0503 125.977 35.0226 125.756 34.9671C125.538 34.9117 125.329 34.8303 125.128 34.7228C124.93 34.6182 124.649 34.3783 124.285 34.0031C123.924 33.6281 123.542 33.1162 123.139 32.4673C122.736 31.8184 122.387 31.1686 122.092 30.5178C121.793 29.8695 121.503 29.2914 121.22 28.7835C120.939 28.2759 120.617 27.7394 120.253 27.174C119.888 26.6087 119.558 26.0755 119.261 25.5745C118.961 25.0707 118.623 24.5155 118.246 23.9089C117.869 23.2997 117.395 22.6088 116.822 21.8362C116.25 21.061 115.788 20.3591 115.437 19.7305C115.086 19.102 114.626 18.3574 114.058 17.4969C113.49 16.6337 112.939 15.8026 112.403 15.0036C111.867 14.2046 111.41 13.5834 111.03 13.1399C110.651 12.6938 110.269 12.1993 109.884 11.6563C109.502 11.1136 109.269 10.7678 109.184 10.619C109.103 10.4677 109.04 10.31 108.998 10.1458C108.952 9.9814 108.928 9.81343 108.926 9.64189C108.924 9.47301 108.942 9.30576 108.979 9.14016C109.017 8.97189 109.075 8.81191 109.151 8.66022C109.228 8.50852 109.322 8.36756 109.432 8.23733C109.544 8.10731 109.669 7.99168 109.806 7.89044C109.946 7.79209 110.096 7.712 110.256 7.65019C110.415 7.58549 110.578 7.5413 110.746 7.51759C110.917 7.49411 111.087 7.49057 111.254 7.50698C111.424 7.52627 111.59 7.56396 111.752 7.62006C111.911 7.67859 112.062 7.7552 112.204 7.84988C112.349 7.94478 112.48 8.05454 112.596 8.17918C112.711 8.30647 112.768 8.37001 112.765 8.36979Z" fill="white"/>
</svg>
