<svg width="30" height="27" viewBox="0 0 30 27" fill="none" xmlns="http://www.w3.org/2000/svg">
<path fill-rule="evenodd" clip-rule="evenodd" d="M19.1895 0C19.7091 0.000346386 20.2126 0.180547 20.6145 0.51L20.7795 0.66L23.1225 3H27C27.7569 2.99976 28.4858 3.28561 29.0408 3.80025C29.5958 4.31488 29.9357 5.02027 29.9925 5.775L30 6V24C30.0002 24.7569 29.7144 25.4858 29.1998 26.0408C28.6851 26.5958 27.9797 26.9357 27.225 26.9925L27 27H3C2.24314 27.0002 1.51415 26.7144 0.959178 26.1998C0.404206 25.6851 0.0642651 24.9797 0.00750032 24.225L1.50402e-07 24V6C-0.000239369 5.24314 0.28561 4.51415 0.800245 3.95918C1.31488 3.40421 2.02027 3.06427 2.775 3.0075L3 3H6.879L9.219 0.66C9.58664 0.291628 10.0706 0.0620963 10.5885 0.0105L10.8105 0H19.1895ZM18.879 3H11.121L8.781 5.34C8.41336 5.70837 7.92938 5.9379 7.4115 5.9895L7.1895 6H3V24H27V6H22.8105C22.2909 5.99965 21.7874 5.81945 21.3855 5.49L21.2205 5.34L18.879 3ZM15 6.75C16.9891 6.75 18.8968 7.54018 20.3033 8.9467C21.7098 10.3532 22.5 12.2609 22.5 14.25C22.5 16.2391 21.7098 18.1468 20.3033 19.5533C18.8968 20.9598 16.9891 21.75 15 21.75C13.0109 21.75 11.1032 20.9598 9.6967 19.5533C8.29018 18.1468 7.5 16.2391 7.5 14.25C7.5 12.2609 8.29018 10.3532 9.6967 8.9467C11.1032 7.54018 13.0109 6.75 15 6.75ZM15 9.75C14.4091 9.75 13.8239 9.8664 13.2779 10.0925C12.732 10.3187 12.2359 10.6502 11.818 11.068C11.4002 11.4859 11.0687 11.982 10.8425 12.5279C10.6164 13.0739 10.5 13.6591 10.5 14.25C10.5 14.8409 10.6164 15.4261 10.8425 15.9721C11.0687 16.518 11.4002 17.0141 11.818 17.432C12.2359 17.8498 12.732 18.1813 13.2779 18.4075C13.8239 18.6336 14.4091 18.75 15 18.75C16.1935 18.75 17.3381 18.2759 18.182 17.432C19.0259 16.5881 19.5 15.4435 19.5 14.25C19.5 13.0565 19.0259 11.9119 18.182 11.068C17.3381 10.2241 16.1935 9.75 15 9.75Z" fill="white"/>
</svg>
