<svg width="24" height="30" viewBox="0 0 24 30" fill="none" xmlns="http://www.w3.org/2000/svg">
<path fill-rule="evenodd" clip-rule="evenodd" d="M22.4987 15.015C22.694 15.0426 22.8819 15.1084 23.0517 15.2087C23.2216 15.309 23.3699 15.4419 23.4884 15.5996C23.6068 15.7573 23.6929 15.9368 23.7419 16.1279C23.7909 16.3189 23.8017 16.5178 23.7737 16.713C23.3977 19.314 22.1787 21.7199 20.3036 23.5613C18.4286 25.4028 16.0011 26.5781 13.3937 26.907V28.5C13.3937 28.8978 13.2357 29.2794 12.9544 29.5607C12.6731 29.842 12.2915 30 11.8937 30C11.4959 30 11.1143 29.842 10.833 29.5607C10.5517 29.2794 10.3937 28.8978 10.3937 28.5V26.907C7.78666 26.5776 5.35966 25.402 3.48495 23.5606C1.61025 21.7192 0.391347 19.3137 0.0152041 16.713C-0.041287 16.3192 0.0609906 15.919 0.299537 15.6006C0.538083 15.2821 0.893358 15.0715 1.2872 15.015C1.68105 14.9585 2.08121 15.0608 2.39964 15.2993C2.71808 15.5379 2.92871 15.8932 2.9852 16.287C3.29768 18.4266 4.36979 20.3823 6.00554 21.7965C7.64128 23.2107 9.73138 23.989 11.8937 23.989C14.056 23.989 16.1461 23.2107 17.7819 21.7965C19.4176 20.3823 20.4897 18.4266 20.8022 16.287C20.8301 16.092 20.8962 15.9044 20.9967 15.7349C21.0972 15.5654 21.23 15.4174 21.3877 15.2993C21.5454 15.1811 21.7248 15.0952 21.9157 15.0465C22.1066 14.9977 22.3037 14.987 22.4987 15.015ZM11.8937 0C13.8828 0 15.7905 0.790176 17.197 2.1967C18.6035 3.60322 19.3937 5.51088 19.3937 7.5V15C19.3937 16.9891 18.6035 18.8968 17.197 20.3033C15.7905 21.7098 13.8828 22.5 11.8937 22.5C9.90458 22.5 7.99693 21.7098 6.5904 20.3033C5.18388 18.8968 4.3937 16.9891 4.3937 15V7.5C4.3937 5.51088 5.18388 3.60322 6.5904 2.1967C7.99693 0.790176 9.90458 0 11.8937 0ZM11.8937 3C10.7002 3 9.55564 3.47411 8.71172 4.31802C7.86781 5.16193 7.3937 6.30653 7.3937 7.5V15C7.3937 16.1935 7.86781 17.3381 8.71172 18.182C9.55564 19.0259 10.7002 19.5 11.8937 19.5C13.0872 19.5 14.2318 19.0259 15.0757 18.182C15.9196 17.3381 16.3937 16.1935 16.3937 15V7.5C16.3937 6.30653 15.9196 5.16193 15.0757 4.31802C14.2318 3.47411 13.0872 3 11.8937 3Z" fill="white"/>
</svg>
