<svg width="31" height="25" viewBox="0 0 31 25" fill="none" xmlns="http://www.w3.org/2000/svg">
<path fill-rule="evenodd" clip-rule="evenodd" d="M24.9012 0.63372C25.0168 0.795603 25.0993 0.978664 25.1441 1.17245C25.1889 1.36624 25.1951 1.56695 25.1624 1.76313C25.1296 1.95931 25.0585 2.14712 24.9532 2.31582C24.8478 2.48453 24.7103 2.63083 24.5484 2.74637L21.3665 5.01954C20.8771 5.36862 20.505 5.85772 20.299 6.42244C20.093 6.98716 20.0628 7.60103 20.2125 8.18321L25.2753 3.12043C25.415 2.97579 25.5821 2.86042 25.7669 2.78105C25.9516 2.70168 26.1504 2.6599 26.3514 2.65815C26.5525 2.6564 26.752 2.69472 26.9381 2.77087C27.1242 2.84702 27.2933 2.95947 27.4355 3.10166C27.5777 3.24386 27.6901 3.41295 27.7663 3.59907C27.8424 3.78519 27.8807 3.98461 27.879 4.18569C27.8772 4.38678 27.8355 4.58551 27.7561 4.77027C27.6767 4.95504 27.5613 5.12215 27.4167 5.26186L22.3539 10.3246C22.9361 10.4743 23.55 10.4442 24.1147 10.2382C24.6794 10.0322 25.1685 9.66 25.5176 9.17063L27.7908 5.98879C28.0285 5.67339 28.38 5.46332 28.7703 5.40337C29.1607 5.34342 29.559 5.43833 29.8804 5.66786C30.2018 5.89739 30.4208 6.24339 30.4907 6.63208C30.5607 7.02077 30.476 7.42141 30.2548 7.74857L27.9831 10.9319C27.1112 12.1522 25.8145 13.0022 24.3477 13.3149C22.881 13.6277 21.3503 13.3805 20.0565 12.622L16.5778 16.1007L22.8734 22.3962C23.1492 22.6819 23.3019 23.0644 23.2984 23.4615C23.295 23.8586 23.1357 24.2384 22.8549 24.5192C22.5741 24.8 22.1943 24.9593 21.7972 24.9627C21.4001 24.9662 21.0176 24.8135 20.732 24.5377L14.4364 18.2421L8.14089 24.5377C8.00119 24.6823 7.83408 24.7977 7.64931 24.8771C7.46454 24.9564 7.26582 24.9982 7.06473 25C6.86364 25.0017 6.66422 24.9634 6.4781 24.8872C6.29198 24.8111 6.12289 24.6986 5.9807 24.5564C5.8385 24.4142 5.72605 24.2452 5.6499 24.059C5.57376 23.8729 5.53544 23.6735 5.53719 23.4724C5.53893 23.2713 5.58071 23.0726 5.66008 22.8878C5.73945 22.7031 5.85482 22.536 5.99947 22.3962L12.295 16.1007L9.85675 13.6625C9.15557 14.0411 8.31656 14.3288 7.42456 14.4333C6.51872 14.5474 5.59876 14.4495 4.73724 14.1473C3.87572 13.845 3.09622 13.3467 2.46022 12.6917C1.0533 11.2833 0.249133 9.51289 0.049227 7.81218C-0.14765 6.13872 0.23096 4.34562 1.45766 3.12043C2.68284 1.89374 4.47443 1.51513 6.14788 1.712C7.8486 1.91342 9.6205 2.71759 11.0274 4.12451C11.6825 4.76051 12.1807 5.54001 12.483 6.40153C12.7852 7.26305 12.8831 8.18301 12.769 9.08885C12.6667 9.94044 12.4047 10.7651 11.9967 11.5195L14.4364 13.9578L17.9151 10.4806C17.1571 9.18698 16.9102 7.65664 17.2229 6.19024C17.5356 4.72385 18.3854 3.42739 19.6052 2.55555L22.7886 0.28237C23.1153 0.0488227 23.5215 -0.0453649 23.9177 0.0205253C24.3139 0.0864155 24.6676 0.306987 24.9012 0.63372ZM3.05691 7.4578C3.17806 8.48762 3.67934 9.62799 4.60164 10.5488C5.39218 11.3393 6.26601 11.518 7.07169 11.4241C7.95007 11.3211 8.67095 10.8971 8.95263 10.6169C9.23432 10.3352 9.65685 9.61436 9.75983 8.73599C9.85524 7.92879 9.67653 7.05495 8.886 6.26593C7.96219 5.34364 6.82333 4.84235 5.79351 4.7212C4.73643 4.59702 3.97769 4.88173 3.59756 5.26186C3.21895 5.64198 2.93272 6.3992 3.05691 7.4578Z" fill="white"/>
</svg>
