<svg width="65" height="19" viewBox="0 0 65 19" fill="none" xmlns="http://www.w3.org/2000/svg">
<path d="M64.4295 1.52957C64.4295 1.52957 64.191 1.462 63.7141 1.32688C63.2346 1.19331 62.817 1.06548 62.4614 0.943376C62.1043 0.821384 61.6765 0.717341 61.178 0.631248C60.678 0.543923 60.1725 0.456366 59.6617 0.368579C59.1495 0.280901 58.5978 0.221443 58.0065 0.190205C57.4152 0.158967 56.8572 0.131073 56.3327 0.106523C55.8068 0.0820837 55.2918 0.0594476 54.7878 0.0386153C54.2837 0.0177831 53.8101 0.00526423 53.3669 0.00105898C52.9236 -0.00314626 52.4672 0.00520316 51.9977 0.0261071C51.5283 0.0483523 51.0704 0.0716754 50.6241 0.0960769C50.1792 0.12171 49.5848 0.175127 48.8407 0.256328C48.0965 0.337529 47.4441 0.408522 46.8833 0.469308C46.321 0.528862 45.7206 0.591546 45.0819 0.657362C44.4417 0.721947 43.8008 0.785245 43.1591 0.847256C42.5173 0.909268 41.8138 0.974992 41.0485 1.04443C40.2818 1.11397 39.5968 1.17548 38.9936 1.22894C38.3918 1.28363 37.6805 1.37767 36.8596 1.51107C36.0387 1.64447 35.2256 1.79006 34.4203 1.94784C33.6136 2.10573 32.8086 2.28442 32.0053 2.48389C31.2008 2.68481 30.4149 2.89163 29.6478 3.10435C28.8808 3.3184 28.0477 3.54057 27.1483 3.77087C26.2503 4.00105 25.4539 4.2263 24.759 4.4466C24.0653 4.66545 23.299 4.92131 22.4602 5.21416C21.6228 5.50825 20.8892 5.77561 20.2594 6.01623C19.6296 6.25686 18.9407 6.52595 18.1927 6.82352C17.4447 7.12109 16.6874 7.41266 15.9209 7.69824C15.1545 7.98517 14.4993 8.2461 13.9555 8.48103C13.4118 8.71731 12.8747 8.96046 12.3443 9.21051C11.8124 9.45932 11.3283 9.66572 10.8921 9.82973C10.4558 9.9924 10.0327 10.1607 9.62299 10.3347C9.21325 10.5087 8.85511 10.6616 8.54858 10.7934C8.24216 10.9265 7.95048 11.0746 7.67353 11.2377C7.39657 11.4008 7.05704 11.5995 6.65492 11.8336C6.2528 12.0677 5.89396 12.2862 5.57839 12.4889C5.26282 12.6916 4.89453 12.9513 4.47352 13.268C4.05396 13.586 3.82298 13.7993 3.78058 13.9081C3.73818 14.0169 3.71366 14.1297 3.70701 14.2463C3.70171 14.3629 3.71512 14.4772 3.74726 14.5894C3.7794 14.7015 3.82849 14.8062 3.89451 14.9034C3.96043 14.9993 4.04016 15.0826 4.13372 15.1532C4.22716 15.2225 4.32941 15.2756 4.44045 15.3124C4.55149 15.3492 4.66568 15.3669 4.78303 15.3654C4.9005 15.3652 5.01441 15.3464 5.12477 15.309C5.23502 15.2703 5.33652 15.2154 5.42928 15.1443C5.52202 15.0733 5.60089 14.9892 5.66585 14.892C5.7307 14.7935 5.77812 14.6884 5.80812 14.5765C5.83935 14.4633 5.85085 14.3482 5.84264 14.2314C5.83576 14.1145 5.81033 14.0018 5.76634 13.8933C5.72246 13.7862 5.66241 13.6878 5.58621 13.5982C5.51011 13.5099 5.4217 13.4361 5.32098 13.3769C5.22025 13.3176 5.11285 13.2758 4.99877 13.2513C4.8847 13.2269 4.76948 13.2215 4.65311 13.2351C4.53675 13.2487 4.4259 13.28 4.32055 13.3292C4.2153 13.3797 4.12005 13.4448 4.03477 13.5247C3.95095 13.6059 3.88225 13.6986 3.82868 13.8029C3.77366 13.906 3.7374 14.0156 3.71991 14.1318C3.70097 14.2468 3.70165 14.3622 3.72194 14.478C3.74212 14.5925 3.7794 14.7015 3.8338 14.8051C3.88942 14.9072 3.96037 14.9986 4.04665 15.0793C4.13147 15.1588 4.22717 15.2225 4.33371 15.2705C4.44027 15.3185 4.55143 15.3485 4.6672 15.3607C4.78431 15.3727 4.89988 15.3659 5.01392 15.3404C5.12784 15.3135 5.23429 15.2697 5.33329 15.2089C5.43363 15.148 5.5213 15.0726 5.59631 14.9828C5.67143 14.8943 5.70899 14.85 5.70899 14.85C5.70899 14.85 5.75808 14.8311 5.85626 14.7934C5.9531 14.7557 6.11098 14.6226 6.32991 14.3941C6.5503 14.1667 6.82994 13.921 7.16884 13.6569C7.50919 13.3941 7.86323 13.1005 8.23094 12.776C8.5973 12.4516 8.91255 12.2037 9.17666 12.0321C9.44212 11.8605 9.7623 11.6729 10.1372 11.4694C10.5135 11.2657 10.918 11.0604 11.3507 10.8535C11.7835 10.6479 12.2606 10.4225 12.782 10.1773C13.302 9.93212 13.8261 9.69542 14.3543 9.46717C14.8811 9.23903 15.531 8.98055 16.3041 8.69174C17.0771 8.40292 17.8357 8.11124 18.5799 7.81668C19.324 7.52079 20.0063 7.25425 20.6269 7.01708C21.2462 6.78002 21.9701 6.51751 22.7985 6.22956C23.6269 5.94026 24.3787 5.68964 25.0541 5.47769C25.7294 5.26574 26.5202 5.04502 27.4263 4.81551C28.3324 4.58467 29.1644 4.36529 29.9224 4.15737C30.6804 3.94811 31.4526 3.74781 32.239 3.55647C33.0253 3.36379 33.816 3.19235 34.6112 3.04215C35.4063 2.89195 36.2006 2.75533 36.994 2.63229C37.7873 2.50925 38.4853 2.42575 39.088 2.38179C39.6919 2.33637 40.3778 2.28627 41.1457 2.23148C41.9121 2.17546 42.617 2.12583 43.2602 2.08259C43.9035 2.03936 44.5456 1.99825 45.1865 1.95926C45.8274 1.92027 46.4294 1.88514 46.9926 1.85386C47.5573 1.82382 48.2108 1.79054 48.9532 1.75404C49.6957 1.71889 50.2861 1.68201 50.7245 1.6434C51.1629 1.60479 51.6076 1.56971 52.0588 1.53817C52.5085 1.50673 52.9404 1.47946 53.3544 1.45635C53.7685 1.43459 54.2241 1.43305 54.7212 1.45175C55.2183 1.47045 55.7227 1.49531 56.2343 1.52632C56.746 1.55868 57.267 1.6058 57.7973 1.66768C58.3277 1.72957 58.8514 1.81833 59.3686 1.93395C59.8859 2.05092 60.3625 2.14894 60.7984 2.22801C61.2355 2.30564 61.6375 2.39154 62.0044 2.48572C62.3726 2.57978 62.7942 2.69918 63.2692 2.84392C63.7456 2.98855 64.0152 3.06638 64.0783 3.07742C64.1413 3.08846 64.205 3.09135 64.2694 3.08607C64.3324 3.08091 64.3942 3.06843 64.4547 3.04862C64.5164 3.02736 64.5742 2.99967 64.6281 2.96554C64.682 2.93142 64.7314 2.89159 64.7763 2.84606C64.8211 2.79918 64.8594 2.7481 64.8914 2.69283C64.9246 2.63744 64.9502 2.57863 64.9681 2.51641C64.986 2.45552 64.9964 2.39256 64.9992 2.32752C65.0021 2.26382 64.9969 2.20078 64.9837 2.1384C64.9718 2.0759 64.952 2.01541 64.9243 1.95692C64.8966 1.89977 64.8625 1.84585 64.8219 1.79517C64.7814 1.74582 64.7353 1.70167 64.6835 1.6627C64.633 1.62362 64.5777 1.59169 64.5176 1.56691C64.4589 1.54201 64.4295 1.52957 64.4295 1.52957Z" fill="white"/>
<path d="M8.28643 4.15512C8.28643 4.15512 8.18744 4.29016 7.98947 4.56023C7.79283 4.83019 7.51567 5.17224 7.15801 5.58637C6.79889 5.99927 6.47032 6.42249 6.1723 6.85604C5.87563 7.28948 5.60222 7.67713 5.35206 8.01899C5.10324 8.36074 4.87048 8.6843 4.65379 8.98966C4.43854 9.29625 4.18689 9.66119 3.89884 10.0845C3.61224 10.509 3.37985 10.8534 3.20166 11.1178C3.02347 11.3822 2.83446 11.63 2.63464 11.861C2.43482 12.0921 2.24829 12.3288 2.07505 12.5712C1.9017 12.8123 1.71586 13.107 1.51755 13.4554C1.31779 13.8026 1.14619 14.1144 1.00274 14.3908C0.857944 14.6673 0.753699 14.8453 0.689992 14.9248C0.626285 15.0043 0.552305 15.0819 0.468035 15.1577C0.382431 15.2336 0.307713 15.3187 0.243872 15.413C0.179922 15.506 0.128035 15.6061 0.0882025 15.7134C0.0482681 15.8193 0.0221312 15.9288 0.00979178 16.0419C-0.00389734 16.155 -0.00338878 16.2684 0.0113176 16.382C0.0259063 16.4942 0.0537509 16.6034 0.0948438 16.7094C0.135929 16.8154 0.189328 16.915 0.255018 17.0082C0.319374 17.1015 0.394467 17.1858 0.480304 17.2611C0.566141 17.3365 0.659764 17.3997 0.761173 17.4508C0.86135 17.5033 0.967248 17.5433 1.07886 17.5706C1.18902 17.5967 1.30076 17.6091 1.41409 17.608C1.52887 17.608 1.64115 17.5941 1.75094 17.5662C1.86073 17.5383 1.96607 17.4973 2.06696 17.4431C2.16662 17.3904 2.03807 17.4036 1.68132 17.4828C1.32335 17.5634 1.29125 17.6167 1.58504 17.6426C1.87872 17.6671 2.21026 17.6677 2.57967 17.6441C2.94907 17.6206 3.29092 17.6068 3.60519 17.6027C3.91803 17.5973 4.25291 17.6057 4.60985 17.6277C4.96555 17.6513 5.50179 17.6863 6.21857 17.733C6.93401 17.7797 7.53175 17.832 8.0118 17.8899C8.49061 17.9493 8.92343 18.0158 9.31024 18.0894C9.69561 18.1618 10.1327 18.2151 10.6217 18.2493C11.1118 18.2821 11.5541 18.3249 11.9487 18.3776C12.3419 18.4305 12.8114 18.4906 13.357 18.558C13.9026 18.6254 14.3681 18.6703 14.7534 18.6928C15.1401 18.7151 15.4901 18.7269 15.8035 18.7283C16.1155 18.7297 16.4224 18.7262 16.7242 18.7177C17.0261 18.7105 17.2937 18.7467 17.5271 18.8261C17.7603 18.9042 17.9458 18.9431 18.0835 18.9426C18.2212 18.9421 18.3557 18.9196 18.4871 18.8751C18.6171 18.8307 18.7368 18.7662 18.846 18.6816C18.9566 18.5983 19.0498 18.4995 19.1255 18.3853C19.2026 18.271 19.2592 18.1468 19.2955 18.0129C19.3319 17.8803 19.3465 17.7447 19.3392 17.6062C19.3307 17.4692 19.3009 17.3366 19.2499 17.2085C19.1975 17.0804 19.1266 16.964 19.037 16.8593C18.9474 16.7546 18.8437 16.6672 18.7259 16.5972C18.6066 16.5259 18.4796 16.4755 18.3449 16.4461C18.2102 16.4179 18.0747 16.4115 17.9382 16.4267C17.8004 16.4421 17.669 16.4791 17.5442 16.538C17.4193 16.5955 17.3068 16.6722 17.2066 16.7682C17.1077 16.8627 17.0261 16.9713 16.9619 17.0941C16.8976 17.2155 16.8541 17.3446 16.8316 17.4815C16.8104 17.6182 16.8114 17.7545 16.8347 17.8904C16.8566 18.0263 16.9003 18.155 16.9656 18.2766C17.0309 18.3982 17.114 18.5062 17.2149 18.6005C17.3158 18.6949 17.4287 18.7707 17.5536 18.828C17.6784 18.8853 17.8096 18.9211 17.9472 18.9355C18.0848 18.9499 18.2205 18.9422 18.3544 18.9123C18.4897 18.8823 18.6165 18.8314 18.7349 18.7596C18.8519 18.6879 18.9553 18.5991 19.0452 18.4931C19.1338 18.3873 19.2032 18.2702 19.2534 18.1419C19.3037 18.0136 19.3326 17.8809 19.3403 17.7439C19.3466 17.6056 19.3308 17.4705 19.2929 17.3386C19.2564 17.2052 19.199 17.0816 19.1208 16.9679C19.0426 16.8541 18.9488 16.7558 18.8394 16.6729C18.7287 16.5902 18.608 16.5265 18.4774 16.4818C18.3456 16.4386 18.2797 16.417 18.2797 16.417C18.281 16.4169 18.1792 16.3935 17.9742 16.3468C17.7704 16.2987 17.4526 16.2768 17.0209 16.2811C16.5877 16.2841 16.1849 16.3117 15.8124 16.3639C15.4398 16.4146 15.1044 16.4495 14.8062 16.4685C14.5094 16.4888 14.1095 16.4858 13.6064 16.4595C13.1019 16.4333 12.6361 16.3837 12.2088 16.3106C11.7802 16.2377 11.3644 16.1732 10.9615 16.1171C10.5587 16.0623 10.1588 15.9857 9.76181 15.8872C9.36352 15.7889 8.92904 15.6773 8.45836 15.5524C7.98768 15.4276 7.37064 15.2715 6.60723 15.0842C5.84249 14.8971 5.29791 14.7932 4.97349 14.7725C4.64762 14.7505 4.22143 14.7402 3.69492 14.7415C3.16841 14.7427 2.75066 14.7695 2.44168 14.8218C2.13135 14.8743 1.74586 14.9241 1.28522 14.9712C0.824693 15.0198 0.552305 15.0819 0.468035 15.1577C0.383773 15.2334 0.309055 15.3186 0.243872 15.413C0.179922 15.506 0.128035 15.6061 0.0882025 15.7134C0.0496102 15.8192 0.0234732 15.9287 0.00979178 16.0419C-0.00255528 16.1549 -0.00204671 16.2683 0.0113176 16.382C0.0259063 16.4942 0.0537509 16.6034 0.0948438 16.7094C0.135929 16.8154 0.189328 16.915 0.255018 17.0082C0.319374 17.1015 0.394467 17.1858 0.480304 17.2611C0.566141 17.3365 0.659764 17.3997 0.761173 17.4508C0.86135 17.5033 0.967248 17.5433 1.07886 17.5706C1.18902 17.5967 1.30076 17.6091 1.41409 17.608C1.52753 17.6081 1.63981 17.5942 1.75094 17.5662C1.86073 17.5383 1.96607 17.4973 2.06696 17.4431C2.16662 17.3904 2.30794 17.2694 2.49094 17.0802C2.6726 16.8912 2.86481 16.633 3.06756 16.3059C3.27031 15.9787 3.44602 15.651 3.59468 15.3229C3.7448 14.996 3.89106 14.7045 4.03347 14.4484C4.17454 14.1925 4.3367 13.9219 4.51995 13.6369C4.7032 13.3518 4.86955 13.083 5.019 12.8304C5.16968 12.5763 5.33984 12.2964 5.52949 11.9905C5.71902 11.6834 5.95785 11.335 6.24597 10.9455C6.53398 10.5546 6.76627 10.2007 6.94286 9.88376C7.11945 9.56683 7.35066 9.19142 7.63649 8.75751C7.92221 8.32227 8.19981 7.90322 8.46928 7.50037C8.73875 7.09751 8.96898 6.78429 9.15996 6.5607C9.35084 6.33577 9.54309 6.08642 9.73671 5.81266C9.92899 5.539 10.0464 5.36465 10.0888 5.28961C10.1298 5.21333 10.1611 5.1338 10.1827 5.05101C10.2056 4.96812 10.2176 4.88342 10.2186 4.79692C10.2197 4.71176 10.2108 4.62742 10.1918 4.54391C10.1727 4.45905 10.1438 4.37838 10.1052 4.30187C10.0665 4.22537 10.0195 4.15428 9.96413 4.0886C9.90745 4.02303 9.84461 3.96471 9.77562 3.91365C9.70539 3.86404 9.62984 3.82364 9.54896 3.79246C9.46932 3.75982 9.38716 3.73752 9.30246 3.72555C9.21641 3.7137 9.1312 3.7119 9.04681 3.72016C8.96119 3.72987 8.87767 3.74887 8.79627 3.77714C8.71632 3.80664 8.64049 3.84526 8.56878 3.89299C8.49573 3.94084 8.43005 3.99618 8.37173 4.05902C8.31353 4.1232 8.28509 4.15523 8.28643 4.15512Z" fill="white"/>
</svg>
