<svg width="30" height="30" viewBox="0 0 30 30" fill="none" xmlns="http://www.w3.org/2000/svg">
<path d="M15 0C23.2845 0 30 6.7155 30 15C30 23.2845 23.2845 30 15 30H3C2.20435 30 1.44129 29.6839 0.87868 29.1213C0.31607 28.5587 0 27.7956 0 27V15C0 6.7155 6.7155 0 15 0ZM15 3C11.8174 3 8.76515 4.26428 6.51472 6.51472C4.26428 8.76515 3 11.8174 3 15V27H15C18.1826 27 21.2348 25.7357 23.4853 23.4853C25.7357 21.2348 27 18.1826 27 15C27 11.8174 25.7357 8.76515 23.4853 6.51472C21.2348 4.26428 18.1826 3 15 3ZM15 18C15.3823 18.0004 15.75 18.1468 16.0281 18.4093C16.3061 18.6717 16.4734 19.0304 16.4958 19.4121C16.5182 19.7938 16.394 20.1696 16.1486 20.4627C15.9032 20.7559 15.5551 20.9443 15.1755 20.9895L15 21H10.5C10.1177 20.9996 9.74995 20.8532 9.47195 20.5907C9.19394 20.3283 9.02665 19.9696 9.00424 19.5879C8.98184 19.2062 9.10601 18.8304 9.3514 18.5373C9.59678 18.2441 9.94486 18.0557 10.3245 18.0105L10.5 18H15ZM19.5 12C19.8978 12 20.2794 12.158 20.5607 12.4393C20.842 12.7206 21 13.1022 21 13.5C21 13.8978 20.842 14.2794 20.5607 14.5607C20.2794 14.842 19.8978 15 19.5 15H10.5C10.1022 15 9.72064 14.842 9.43934 14.5607C9.15804 14.2794 9 13.8978 9 13.5C9 13.1022 9.15804 12.7206 9.43934 12.4393C9.72064 12.158 10.1022 12 10.5 12H19.5Z" fill="white"/>
</svg>
