<svg width="30" height="30" viewBox="0 0 30 30" fill="none" xmlns="http://www.w3.org/2000/svg">
<path fill-rule="evenodd" clip-rule="evenodd" d="M12.75 3C12.3736 2.99994 12.0035 3.09607 11.6748 3.27928C11.346 3.4625 11.0695 3.7267 10.8716 4.04681C10.6737 4.36692 10.5609 4.73231 10.5439 5.10828C10.5269 5.48426 10.6063 5.85834 10.7745 6.195L11.019 6.6825C11.1414 6.92675 11.1992 7.19826 11.187 7.47118C11.1747 7.7441 11.0929 8.00934 10.9491 8.24166C10.8054 8.47398 10.6045 8.66563 10.3658 8.79837C10.127 8.93112 9.85819 9.00053 9.585 9H4.5C4.10218 9 3.72064 9.15804 3.43934 9.43934C3.15804 9.72064 3 10.1022 3 10.5V12.291C5.73 12.1275 8.25 14.2875 8.25 17.25C8.25 20.2125 5.73 22.3725 3 22.209V25.5C3 25.8978 3.15804 26.2794 3.43934 26.5607C3.72064 26.842 4.10218 27 4.5 27H7.791C7.6275 24.27 9.7875 21.75 12.75 21.75C15.7125 21.75 17.8725 24.27 17.709 27H19.5C19.8978 27 20.2794 26.842 20.5607 26.5607C20.842 26.2794 21 25.8978 21 25.5V20.415C21 19.224 22.2525 18.45 23.3175 18.981L23.8035 19.2255C24.1401 19.3936 24.5141 19.4728 24.89 19.4557C25.2659 19.4386 25.6311 19.3258 25.9511 19.1279C26.2711 18.93 26.5352 18.6536 26.7184 18.3249C26.9016 17.9963 26.9977 17.6263 26.9977 17.25C26.9977 16.8737 26.9016 16.5037 26.7184 16.1751C26.5352 15.8464 26.2711 15.57 25.9511 15.3721C25.6311 15.1742 25.2659 15.0614 24.89 15.0443C24.5141 15.0272 24.1401 15.1064 23.8035 15.2745L23.3175 15.519C23.0733 15.6414 22.8017 15.6992 22.5288 15.687C22.2559 15.6747 21.9907 15.5929 21.7583 15.4491C21.526 15.3054 21.3344 15.1045 21.2016 14.8658C21.0689 14.627 20.9995 14.3582 21 14.085V10.5C21 10.1022 20.842 9.72064 20.5607 9.43934C20.2794 9.15804 19.8978 9 19.5 9H15.915C14.724 9 13.95 7.7475 14.481 6.6825L14.7255 6.195C14.8937 5.85834 14.9731 5.48426 14.9561 5.10828C14.9391 4.73231 14.8263 4.36692 14.6284 4.04681C14.4305 3.7267 14.154 3.4625 13.8252 3.27928C13.4965 3.09607 13.1264 2.99994 12.75 3ZM7.596 6C7.122 2.9745 9.441 0 12.75 0C16.0575 0 18.378 2.9745 17.904 6H19.5C20.6935 6 21.8381 6.47411 22.682 7.31802C23.5259 8.16193 24 9.30653 24 10.5V12.096C27.0255 11.622 30 13.941 30 17.25C30 20.5575 27.0255 22.878 24 22.404V25.5C24 26.6935 23.5259 27.8381 22.682 28.682C21.8381 29.5259 20.6935 30 19.5 30H15.8895C15.6258 30.0003 15.3662 29.9351 15.134 29.8102C14.9018 29.6854 14.7042 29.5048 14.559 29.2847C14.4139 29.0646 14.3257 28.8118 14.3024 28.5492C14.2791 28.2865 14.3214 28.0222 14.4255 27.78L14.553 27.4845C14.6811 27.1861 14.7331 26.8605 14.7043 26.537C14.6755 26.2135 14.5669 25.9023 14.3882 25.6311C14.2095 25.3599 13.9663 25.1374 13.6804 24.9834C13.3944 24.8294 13.0748 24.7488 12.75 24.7488C12.4252 24.7488 12.1056 24.8294 11.8196 24.9834C11.5337 25.1374 11.2905 25.3599 11.1118 25.6311C10.9331 25.9023 10.8245 26.2135 10.7957 26.537C10.7669 26.8605 10.8189 27.1861 10.947 27.4845L11.0745 27.7815C11.5245 28.8315 10.7535 30 9.6105 30H4.5C3.30653 30 2.16193 29.5259 1.31802 28.682C0.474106 27.8381 0 26.6935 0 25.5V20.3895C0 19.2465 1.1685 18.4755 2.22 18.9255L2.5155 19.053C2.81394 19.1811 3.1395 19.2331 3.46297 19.2043C3.78645 19.1755 4.09773 19.0669 4.36889 18.8882C4.64005 18.7095 4.86261 18.4663 5.01661 18.1804C5.1706 17.8944 5.25121 17.5748 5.25121 17.25C5.25121 16.9252 5.1706 16.6056 5.01661 16.3196C4.86261 16.0337 4.64005 15.7905 4.36889 15.6118C4.09773 15.4331 3.78645 15.3245 3.46297 15.2957C3.1395 15.2669 2.81394 15.3189 2.5155 15.447L2.2185 15.5745C1.1685 16.0245 0 15.2535 0 14.1105V10.5C0 9.30653 0.474106 8.16193 1.31802 7.31802C2.16193 6.47411 3.30653 6 4.5 6H7.596Z" fill="white"/>
</svg>
