<svg width="24" height="30" viewBox="0 0 24 30" fill="none" xmlns="http://www.w3.org/2000/svg">
<path d="M16.5 0C17.5245 0 18.4305 0.5145 18.9705 1.299L19.098 1.5H21C21.7569 1.49976 22.4858 1.78561 23.0408 2.30025C23.5958 2.81488 23.9357 3.52027 23.9925 4.275L24 4.5V22.5C23.9999 24.4327 23.2537 26.2907 21.917 27.6867C20.5803 29.0826 18.7564 29.9086 16.8255 29.9925L16.5 30H3C2.24314 30.0002 1.51415 29.7144 0.959178 29.1998C0.404206 28.6851 0.0642651 27.9797 0.00750032 27.225L1.50402e-07 27V4.5C-0.000239369 3.74314 0.28561 3.01415 0.800245 2.45918C1.31488 1.90421 2.02027 1.56427 2.775 1.5075L3 1.5H4.902C5.14378 1.08113 5.48325 0.726921 5.89148 0.467567C6.29971 0.208214 6.76459 0.0514034 7.2465 0.0105L7.5 0H16.5ZM4.5 4.5H3V27H16.5C17.6935 27 18.8381 26.5259 19.682 25.682C20.5259 24.8381 21 23.6935 21 22.5V4.5H19.5C19.5 5.29565 19.1839 6.05871 18.6213 6.62132C18.0587 7.18393 17.2956 7.5 16.5 7.5H7.5C6.70435 7.5 5.94129 7.18393 5.37868 6.62132C4.81607 6.05871 4.5 5.29565 4.5 4.5ZM12 18C12.3823 18.0004 12.75 18.1468 13.0281 18.4093C13.3061 18.6717 13.4734 19.0304 13.4958 19.4121C13.5182 19.7938 13.394 20.1696 13.1486 20.4627C12.9032 20.7559 12.5551 20.9443 12.1755 20.9895L12 21H7.5C7.11768 20.9996 6.74995 20.8532 6.47195 20.5907C6.19394 20.3283 6.02665 19.9696 6.00424 19.5879C5.98184 19.2062 6.10601 18.8304 6.3514 18.5373C6.59678 18.2441 6.94486 18.0557 7.3245 18.0105L7.5 18H12ZM16.5 12C16.8978 12 17.2794 12.158 17.5607 12.4393C17.842 12.7206 18 13.1022 18 13.5C18 13.8978 17.842 14.2794 17.5607 14.5607C17.2794 14.842 16.8978 15 16.5 15H7.5C7.10218 15 6.72064 14.842 6.43934 14.5607C6.15804 14.2794 6 13.8978 6 13.5C6 13.1022 6.15804 12.7206 6.43934 12.4393C6.72064 12.158 7.10218 12 7.5 12H16.5ZM16.5 3H7.5V4.5H16.5V3Z" fill="white"/>
</svg>
