<svg width="32" height="26" viewBox="0 0 32 26" fill="none" xmlns="http://www.w3.org/2000/svg">
<path fill-rule="evenodd" clip-rule="evenodd" d="M25.6149 0.9309C25.7294 1.09124 25.8111 1.27255 25.8555 1.46449C25.8999 1.65643 25.9061 1.85523 25.8736 2.04954C25.8411 2.24385 25.7707 2.42987 25.6664 2.59696C25.562 2.76406 25.4258 2.90896 25.2654 3.0234L22.1139 5.2749C21.6292 5.62065 21.2606 6.10509 21.0566 6.66442C20.8525 7.22376 20.8227 7.83177 20.9709 8.4084L25.9854 3.3939C26.1238 3.25063 26.2893 3.13636 26.4723 3.05775C26.6553 2.97913 26.8522 2.93776 27.0513 2.93602C27.2505 2.93429 27.448 2.97225 27.6324 3.04767C27.8167 3.12309 27.9842 3.23447 28.125 3.37531C28.2659 3.51615 28.3772 3.68362 28.4527 3.86797C28.5281 4.05231 28.566 4.24983 28.5643 4.449C28.5626 4.64817 28.5212 4.845 28.4426 5.02801C28.364 5.21101 28.2497 5.37653 28.1064 5.5149L23.0919 10.5294C23.6686 10.6777 24.2766 10.6478 24.8359 10.4438C25.3952 10.2397 25.8797 9.87111 26.2254 9.3864L28.4769 6.2349C28.7124 5.92251 29.0605 5.71445 29.4471 5.65507C29.8338 5.59569 30.2283 5.68969 30.5466 5.91703C30.8649 6.14437 31.0819 6.48707 31.1511 6.87206C31.2204 7.25704 31.1365 7.65386 30.9174 7.9779L28.6674 11.1309C27.8039 12.3395 26.5195 13.1814 25.0667 13.4912C23.614 13.8009 22.0979 13.5561 20.8164 12.8049L17.3709 16.2504L23.6064 22.4859C23.8797 22.7688 24.0309 23.1477 24.0274 23.541C24.024 23.9343 23.8663 24.3105 23.5882 24.5886C23.31 24.8667 22.9338 25.0245 22.5405 25.0279C22.1472 25.0313 21.7683 24.8801 21.4854 24.6069L15.2499 18.3714L9.01443 24.6069C8.87606 24.7502 8.71054 24.8644 8.52754 24.9431C8.34453 25.0217 8.1477 25.063 7.94853 25.0648C7.74936 25.0665 7.55184 25.0286 7.3675 24.9531C7.18315 24.8777 7.01568 24.7663 6.87484 24.6255C6.734 24.4847 6.62262 24.3172 6.5472 24.1328C6.47178 23.9485 6.43382 23.751 6.43555 23.5518C6.43728 23.3526 6.47866 23.1558 6.55728 22.9728C6.63589 22.7898 6.75016 22.6243 6.89343 22.4859L13.1289 16.2504L10.7139 13.8354C10.0194 14.2104 9.18843 14.4954 8.30493 14.5989C7.40773 14.7119 6.49654 14.6149 5.64324 14.3156C4.78993 14.0162 4.01786 13.5227 3.38793 12.8739C1.99443 11.4789 1.19793 9.7254 0.999929 8.0409C0.804929 6.3834 1.17993 4.6074 2.39493 3.3939C3.60843 2.1789 5.38293 1.8039 7.04043 1.9989C8.72493 2.1984 10.4799 2.9949 11.8734 4.3884C12.5222 5.01833 13.0158 5.7904 13.3151 6.64371C13.6145 7.49701 13.7115 8.4082 13.5984 9.3054C13.4971 10.1489 13.2376 10.9656 12.8334 11.7129L15.2499 14.1279L18.6954 10.6839C17.9446 9.40259 17.7001 7.88685 18.0098 6.43444C18.3196 4.98202 19.1612 3.69792 20.3694 2.8344L23.5224 0.5829C23.8461 0.35158 24.2483 0.25829 24.6407 0.323552C25.0332 0.388814 25.3836 0.607282 25.6149 0.9309ZM3.97893 7.6899C4.09893 8.7099 4.59543 9.8394 5.50893 10.7514C6.29193 11.5344 7.15743 11.7114 7.95543 11.6184C8.82543 11.5164 9.53943 11.0964 9.81843 10.8189C10.0974 10.5399 10.5159 9.8259 10.6179 8.9559C10.7124 8.1564 10.5354 7.2909 9.75243 6.5094C8.83743 5.5959 7.70943 5.0994 6.68943 4.9794C5.64243 4.8564 4.89093 5.1384 4.51443 5.5149C4.13943 5.8914 3.85593 6.6414 3.97893 7.6899Z" fill="white"/>
</svg>
