<svg width="36" height="36" viewBox="0 0 36 36" fill="none" xmlns="http://www.w3.org/2000/svg">
<path fill-rule="evenodd" clip-rule="evenodd" d="M28.6061 18.015C28.8014 18.0426 28.9893 18.1084 29.1592 18.2087C29.329 18.309 29.4774 18.4419 29.5958 18.5996C29.7142 18.7573 29.8004 18.9368 29.8493 19.1279C29.8983 19.3189 29.9091 19.5178 29.8811 19.713C29.5051 22.314 28.2861 24.7199 26.4111 26.5613C24.536 28.4028 22.1085 29.5781 19.5011 29.907V31.5C19.5011 31.8978 19.3431 32.2794 19.0618 32.5607C18.7805 32.842 18.3989 33 18.0011 33C17.6033 33 17.2218 32.842 16.9405 32.5607C16.6592 32.2794 16.5011 31.8978 16.5011 31.5V29.907C13.8941 29.5776 11.4671 28.402 9.59238 26.5606C7.71767 24.7192 6.49877 22.3137 6.12263 19.713C6.06613 19.3192 6.16841 18.919 6.40696 18.6006C6.6455 18.2821 7.00078 18.0715 7.39463 18.015C7.78847 17.9585 8.18863 18.0608 8.50707 18.2993C8.8255 18.5379 9.03613 18.8932 9.09263 19.287C9.4051 21.4266 10.4772 23.3823 12.113 24.7965C13.7487 26.2107 15.8388 26.989 18.0011 26.989C20.1634 26.989 22.2535 26.2107 23.8893 24.7965C25.525 23.3823 26.5971 21.4266 26.9096 19.287C26.9376 19.092 27.0037 18.9044 27.1041 18.7349C27.2046 18.5654 27.3375 18.4174 27.4951 18.2993C27.6528 18.1811 27.8322 18.0952 28.0231 18.0465C28.214 17.9977 28.4111 17.987 28.6061 18.015ZM18.0011 3C19.9902 3 21.8979 3.79018 23.3044 5.1967C24.7109 6.60322 25.5011 8.51088 25.5011 10.5V18C25.5011 19.9891 24.7109 21.8968 23.3044 23.3033C21.8979 24.7098 19.9902 25.5 18.0011 25.5C16.012 25.5 14.1043 24.7098 12.6978 23.3033C11.2913 21.8968 10.5011 19.9891 10.5011 18V10.5C10.5011 8.51088 11.2913 6.60322 12.6978 5.1967C14.1043 3.79018 16.012 3 18.0011 3ZM18.0011 6C16.8077 6 15.6631 6.47411 14.8191 7.31802C13.9752 8.16193 13.5011 9.30653 13.5011 10.5V18C13.5011 19.1935 13.9752 20.3381 14.8191 21.182C15.6631 22.0259 16.8077 22.5 18.0011 22.5C19.1946 22.5 20.3392 22.0259 21.1831 21.182C22.027 20.3381 22.5011 19.1935 22.5011 18V10.5C22.5011 9.30653 22.027 8.16193 21.1831 7.31802C20.3392 6.47411 19.1946 6 18.0011 6Z" fill="white"/>
</svg>
