<svg width="30" height="30" viewBox="0 0 30 30" fill="none" xmlns="http://www.w3.org/2000/svg">
<path fill-rule="evenodd" clip-rule="evenodd" d="M12.75 3.00024C12.3736 3.00018 12.0035 3.09632 11.6748 3.27953C11.346 3.46274 11.0695 3.72695 10.8716 4.04706C10.6737 4.36717 10.5609 4.73255 10.5439 5.10853C10.5269 5.4845 10.6063 5.85858 10.7745 6.19524L11.019 6.68274C11.1414 6.92699 11.1992 7.1985 11.187 7.47142C11.1747 7.74434 11.0929 8.00959 10.9491 8.2419C10.8054 8.47422 10.6045 8.66587 10.3658 8.79862C10.127 8.93136 9.85819 9.00077 9.585 9.00024H4.5C4.10218 9.00024 3.72064 9.15828 3.43934 9.43958C3.15804 9.72089 3 10.1024 3 10.5002V12.2912C5.73 12.1277 8.25 14.2877 8.25 17.2502C8.25 20.2127 5.73 22.3727 3 22.2092V25.5002C3 25.8981 3.15804 26.2796 3.43934 26.5609C3.72064 26.8422 4.10218 27.0002 4.5 27.0002H7.791C7.6275 24.2702 9.7875 21.7502 12.75 21.7502C15.7125 21.7502 17.8725 24.2702 17.709 27.0002H19.5C19.8978 27.0002 20.2794 26.8422 20.5607 26.5609C20.842 26.2796 21 25.8981 21 25.5002V20.4152C21 19.2242 22.2525 18.4502 23.3175 18.9812L23.8035 19.2257C24.1401 19.3938 24.5141 19.4731 24.89 19.456C25.2659 19.4389 25.6311 19.326 25.9511 19.1281C26.2711 18.9302 26.5352 18.6538 26.7184 18.3252C26.9016 17.9965 26.9977 17.6265 26.9977 17.2502C26.9977 16.874 26.9016 16.504 26.7184 16.1753C26.5352 15.8467 26.2711 15.5703 25.9511 15.3724C25.6311 15.1745 25.2659 15.0616 24.89 15.0445C24.5141 15.0274 24.1401 15.1067 23.8035 15.2747L23.3175 15.5192C23.0733 15.6416 22.8017 15.6995 22.5288 15.6872C22.2559 15.675 21.9907 15.5931 21.7583 15.4494C21.526 15.3056 21.3344 15.1048 21.2016 14.866C21.0689 14.6272 20.9995 14.3584 21 14.0852V10.5002C21 10.1024 20.842 9.72089 20.5607 9.43958C20.2794 9.15828 19.8978 9.00024 19.5 9.00024H15.915C14.724 9.00024 13.95 7.74774 14.481 6.68274L14.7255 6.19524C14.8937 5.85858 14.9731 5.4845 14.9561 5.10853C14.9391 4.73255 14.8263 4.36717 14.6284 4.04706C14.4305 3.72695 14.154 3.46274 13.8252 3.27953C13.4965 3.09632 13.1264 3.00018 12.75 3.00024ZM7.596 6.00024C7.122 2.97474 9.441 0.000244141 12.75 0.000244141C16.0575 0.000244141 18.378 2.97474 17.904 6.00024H19.5C20.6935 6.00024 21.8381 6.47435 22.682 7.31826C23.5259 8.16218 24 9.30677 24 10.5002V12.0962C27.0255 11.6222 30 13.9412 30 17.2502C30 20.5577 27.0255 22.8782 24 22.4042V25.5002C24 26.6937 23.5259 27.8383 22.682 28.6822C21.8381 29.5261 20.6935 30.0002 19.5 30.0002H15.8895C15.6258 30.0006 15.3662 29.9353 15.134 29.8105C14.9018 29.6856 14.7042 29.505 14.559 29.2849C14.4139 29.0648 14.3257 28.8121 14.3024 28.5494C14.2791 28.2868 14.3214 28.0225 14.4255 27.7802L14.553 27.4847C14.6811 27.1863 14.7331 26.8607 14.7043 26.5373C14.6755 26.2138 14.5669 25.9025 14.3882 25.6314C14.2095 25.3602 13.9663 25.1376 13.6804 24.9836C13.3944 24.8296 13.0748 24.749 12.75 24.749C12.4252 24.749 12.1056 24.8296 11.8196 24.9836C11.5337 25.1376 11.2905 25.3602 11.1118 25.6314C10.9331 25.9025 10.8245 26.2138 10.7957 26.5373C10.7669 26.8607 10.8189 27.1863 10.947 27.4847L11.0745 27.7817C11.5245 28.8317 10.7535 30.0002 9.6105 30.0002H4.5C3.30653 30.0002 2.16193 29.5261 1.31802 28.6822C0.474106 27.8383 0 26.6937 0 25.5002V20.3897C0 19.2467 1.1685 18.4757 2.22 18.9257L2.5155 19.0532C2.81394 19.1813 3.1395 19.2333 3.46297 19.2045C3.78645 19.1758 4.09773 19.0672 4.36889 18.8885C4.64005 18.7097 4.86261 18.4665 5.01661 18.1806C5.1706 17.8947 5.25122 17.575 5.25122 17.2502C5.25122 16.9255 5.1706 16.6058 5.01661 16.3199C4.86261 16.034 4.64005 15.7907 4.36889 15.612C4.09773 15.4333 3.78645 15.3247 3.46297 15.296C3.1395 15.2672 2.81394 15.3192 2.5155 15.4472L2.2185 15.5747C1.1685 16.0247 0 15.2537 0 14.1107V10.5002C0 9.30677 0.474106 8.16218 1.31802 7.31826C2.16193 6.47435 3.30653 6.00024 4.5 6.00024H7.596Z" fill="white"/>
</svg>
