<svg width="30" height="30" viewBox="0 0 30 30" fill="none" xmlns="http://www.w3.org/2000/svg">
<path d="M15 0.000488281C23.2845 0.000488281 30 6.71599 30 15.0005C30 23.285 23.2845 30.0005 15 30.0005H3C2.20435 30.0005 1.44129 29.6844 0.87868 29.1218C0.31607 28.5592 0 27.7961 0 27.0005V15.0005C0 6.71599 6.7155 0.000488281 15 0.000488281ZM15 3.00049C11.8174 3.00049 8.76516 4.26477 6.51472 6.51521C4.26428 8.76564 3 11.8179 3 15.0005V27.0005H15C18.1826 27.0005 21.2348 25.7362 23.4853 23.4858C25.7357 21.2353 27 18.1831 27 15.0005C27 11.8179 25.7357 8.76564 23.4853 6.51521C21.2348 4.26477 18.1826 3.00049 15 3.00049ZM15 18.0005C15.3823 18.0009 15.75 18.1473 16.0281 18.4098C16.3061 18.6722 16.4734 19.0309 16.4958 19.4126C16.5182 19.7942 16.394 20.1701 16.1486 20.4632C15.9032 20.7564 15.5551 20.9448 15.1755 20.99L15 21.0005H10.5C10.1177 21.0001 9.74995 20.8537 9.47195 20.5912C9.19394 20.3288 9.02665 19.9701 9.00424 19.5884C8.98184 19.2067 9.10601 18.8309 9.3514 18.5377C9.59678 18.2446 9.94486 18.0561 10.3245 18.011L10.5 18.0005H15ZM19.5 12.0005C19.8978 12.0005 20.2794 12.1585 20.5607 12.4398C20.842 12.7211 21 13.1027 21 13.5005C21 13.8983 20.842 14.2798 20.5607 14.5611C20.2794 14.8425 19.8978 15.0005 19.5 15.0005H10.5C10.1022 15.0005 9.72064 14.8425 9.43934 14.5611C9.15804 14.2798 9 13.8983 9 13.5005C9 13.1027 9.15804 12.7211 9.43934 12.4398C9.72064 12.1585 10.1022 12.0005 10.5 12.0005H19.5Z" fill="white"/>
</svg>
