<svg width="30" height="28" viewBox="0 0 30 28" fill="none" xmlns="http://www.w3.org/2000/svg">
<path fill-rule="evenodd" clip-rule="evenodd" d="M19.1895 0.500488C19.7091 0.500835 20.2126 0.681036 20.6145 1.01049L20.7795 1.16049L23.1225 3.50049H27C27.7569 3.50025 28.4858 3.7861 29.0408 4.30073C29.5958 4.81537 29.9357 5.52076 29.9925 6.27549L30 6.50049V24.5005C30.0002 25.2574 29.7144 25.9863 29.1998 26.5413C28.6851 27.0963 27.9797 27.4362 27.225 27.493L27 27.5005H3C2.24314 27.5007 1.51415 27.2149 0.959178 26.7002C0.404206 26.1856 0.0642651 25.4802 0.00750032 24.7255L1.50402e-07 24.5005V6.50049C-0.000239369 5.74362 0.28561 5.01464 0.800245 4.45967C1.31488 3.90469 2.02027 3.56475 2.775 3.50799L3 3.50049H6.879L9.219 1.16049C9.58664 0.792116 10.0706 0.562585 10.5885 0.510988L10.8105 0.500488H19.1895ZM18.879 3.50049H11.121L8.781 5.84049C8.41336 6.20886 7.92938 6.43839 7.4115 6.48999L7.1895 6.50049H3V24.5005H27V6.50049H22.8105C22.2909 6.50014 21.7874 6.31994 21.3855 5.99049L21.2205 5.84049L18.879 3.50049ZM15 7.25049C16.9891 7.25049 18.8968 8.04066 20.3033 9.44719C21.7098 10.8537 22.5 12.7614 22.5 14.7505C22.5 16.7396 21.7098 18.6473 20.3033 20.0538C18.8968 21.4603 16.9891 22.2505 15 22.2505C13.0109 22.2505 11.1032 21.4603 9.6967 20.0538C8.29018 18.6473 7.5 16.7396 7.5 14.7505C7.5 12.7614 8.29018 10.8537 9.6967 9.44719C11.1032 8.04066 13.0109 7.25049 15 7.25049ZM15 10.2505C14.4091 10.2505 13.8239 10.3669 13.2779 10.593C12.732 10.8192 12.2359 11.1506 11.818 11.5685C11.4002 11.9864 11.0687 12.4824 10.8425 13.0284C10.6164 13.5744 10.5 14.1595 10.5 14.7505C10.5 15.3414 10.6164 15.9266 10.8425 16.4726C11.0687 17.0185 11.4002 17.5146 11.818 17.9325C12.2359 18.3503 12.732 18.6818 13.2779 18.9079C13.8239 19.1341 14.4091 19.2505 15 19.2505C16.1935 19.2505 17.3381 18.7764 18.182 17.9325C19.0259 17.0886 19.5 15.944 19.5 14.7505C19.5 13.557 19.0259 12.4124 18.182 11.5685C17.3381 10.7246 16.1935 10.2505 15 10.2505Z" fill="white"/>
</svg>
