<svg width="873" height="144" viewBox="0 0 873 144" fill="none" xmlns="http://www.w3.org/2000/svg">
<g clip-path="url(#clip0_289_2872)">
<path d="M57.1785 28.9868V57.7832H28.6342V57.6431H28.5449V28.9868H57.1785Z" fill="white"/>
<path d="M28.6342 57.6431H28.5449V57.7832H28.6342V57.6431Z" fill="white"/>
<path d="M57.1785 86.2134V115.01H28.5449V86.4397H28.6342V86.2134H57.1785Z" fill="white"/>
<path d="M28.6342 86.2134H28.5449V86.4397H28.6342V86.2134Z" fill="white"/>
<path d="M28.6336 57.7832V86.2132H28.5443V86.4395H0V57.6431H28.5443V57.7832H28.6336Z" fill="white"/>
<path d="M28.6342 57.6431H28.5449V57.7832H28.6342V57.6431Z" fill="white"/>
<path d="M28.6342 86.2134H28.5449V86.4397H28.6342V86.2134Z" fill="white"/>
<path d="M138.689 72.176C146.439 78.9073 151.347 88.8605 151.347 99.9631V107.316C151.347 127.574 135.017 144 114.874 144H57.1777V116.604H109.173C113.127 116.604 116.706 114.992 119.295 112.388C121.885 109.783 123.488 106.181 123.488 102.204C123.488 94.2519 117.081 87.8044 109.173 87.8044H57.1777V58.4657H109.173C113.127 58.4657 116.706 56.8529 119.295 54.2487C121.888 51.6446 123.488 48.0455 123.488 44.0692C123.488 36.1167 117.081 29.6692 109.173 29.6692H57.1777V0H114.874C135.017 0 151.347 16.4258 151.347 36.6843V44.3889C151.347 55.4915 146.439 65.4448 138.689 72.176Z" fill="white"/>
</g>
<path d="M185.569 120V24.564H221.935C234.871 24.564 244.375 26.72 250.447 31.032C256.519 35.344 259.555 41.57 259.555 49.71C259.555 54.242 258.389 58.246 256.057 61.722C253.769 65.154 249.611 68.256 243.583 71.028C247.631 72.128 250.865 73.58 253.285 75.384C255.749 77.188 257.575 79.146 258.763 81.258C259.995 83.37 260.809 85.526 261.205 87.726C261.601 89.926 261.799 92.038 261.799 94.062C261.799 102.906 258.829 109.44 252.889 113.664C246.949 117.888 237.247 120 223.783 120H185.569ZM208.075 102.906H224.509C229.261 102.906 232.847 101.828 235.267 99.672C237.731 97.472 238.963 94.766 238.963 91.554C238.963 89.266 238.369 87.308 237.181 85.68C236.037 84.008 234.431 82.732 232.363 81.852C230.339 80.928 227.985 80.466 225.301 80.466H208.075V102.906ZM208.075 62.91H225.301C227.105 62.91 228.755 62.69 230.251 62.25C231.747 61.81 233.067 61.15 234.211 60.27C235.355 59.39 236.257 58.312 236.917 57.036C237.577 55.716 237.907 54.22 237.907 52.548C237.907 49.072 236.609 46.388 234.013 44.496C231.417 42.604 228.161 41.658 224.245 41.658H208.075V62.91ZM298.35 121.32C292.674 121.32 288.208 120.682 284.952 119.406C281.74 118.13 279.386 116.48 277.89 114.456C276.394 112.388 275.448 110.1 275.052 107.592C274.7 105.084 274.524 102.598 274.524 100.134V21.924H296.502V97.23C296.502 99.298 296.986 101.102 297.954 102.642C298.922 104.138 301.012 105.084 304.224 105.48L307.194 105.678V119.472C305.786 119.956 304.334 120.374 302.838 120.726C301.342 121.122 299.846 121.32 298.35 121.32ZM346.081 121.32C339.217 121.32 333.255 119.868 328.195 116.964C323.135 114.016 319.219 109.924 316.447 104.688C313.675 99.408 312.289 93.27 312.289 86.274C312.289 79.146 313.697 72.898 316.513 67.53C319.373 62.118 323.333 57.916 328.393 54.924C333.497 51.932 339.437 50.436 346.213 50.436C353.121 50.436 359.083 51.954 364.099 54.99C369.159 57.982 373.053 62.184 375.781 67.596C378.553 72.964 379.939 79.19 379.939 86.274C379.939 93.094 378.575 99.144 375.847 104.424C373.119 109.66 369.225 113.796 364.165 116.832C359.105 119.824 353.077 121.32 346.081 121.32ZM346.213 104.82C349.249 104.82 351.625 103.874 353.341 101.982C355.057 100.046 356.267 97.604 356.971 94.656C357.675 91.664 358.027 88.628 358.027 85.548C358.027 82.512 357.697 79.542 357.037 76.638C356.377 73.734 355.189 71.358 353.473 69.51C351.757 67.618 349.337 66.672 346.213 66.672C343.089 66.672 340.647 67.596 338.887 69.444C337.171 71.248 335.961 73.602 335.257 76.506C334.553 79.366 334.201 82.38 334.201 85.548C334.201 88.54 334.531 91.532 335.191 94.524C335.851 97.472 337.039 99.936 338.755 101.916C340.515 103.852 343.001 104.82 346.213 104.82ZM422.519 121.32C416.095 121.32 410.331 119.89 405.227 117.03C400.167 114.126 396.163 110.034 393.215 104.754C390.311 99.474 388.859 93.292 388.859 86.208C388.859 79.124 390.289 72.92 393.149 67.596C396.009 62.228 399.969 58.026 405.029 54.99C410.089 51.954 415.919 50.436 422.519 50.436C428.591 50.436 433.761 51.712 438.029 54.264C442.341 56.772 445.663 60.138 447.995 64.362C450.371 68.542 451.669 73.118 451.889 78.09H433.475C433.255 76.55 432.749 74.944 431.957 73.272C431.165 71.6 430.021 70.192 428.525 69.048C427.073 67.86 425.137 67.266 422.717 67.266C418.801 67.266 415.633 68.828 413.213 71.952C410.837 75.032 409.649 79.696 409.649 85.944C409.649 92.104 410.859 96.922 413.279 100.398C415.743 103.874 419.021 105.612 423.113 105.612C425.489 105.612 427.425 104.974 428.921 103.698C430.417 102.422 431.539 100.948 432.287 99.276C433.035 97.604 433.497 96.13 433.673 94.854H451.625C451.493 99.65 450.217 104.05 447.797 108.054C445.421 112.058 442.077 115.27 437.765 117.69C433.497 120.11 428.415 121.32 422.519 121.32ZM464.146 120V21.924H486.586V77.364L508.498 51.756H532.258L507.442 79.476L532.785 120H510.742L493.582 92.742L486.586 100.464V120H464.146ZM574.128 120.858C567.572 120.858 562.49 120.044 558.882 118.416C555.318 116.744 552.832 114.478 551.424 111.618C550.06 108.714 549.378 105.436 549.378 101.784V67.134H538.29V51.756H550.17L555.912 30.834H571.818V51.624H586.8V67.134H571.818L571.884 100.794C571.884 102.158 572.082 103.17 572.478 103.83C572.918 104.49 573.512 104.93 574.26 105.15C575.008 105.37 575.91 105.48 576.966 105.48H586.932V119.01C586.008 119.406 584.578 119.802 582.642 120.198C580.706 120.638 577.868 120.858 574.128 120.858ZM599.368 120V51.756H621.016V69.246C622.072 65.682 623.59 62.492 625.57 59.676C627.594 56.816 630.08 54.572 633.028 52.944C635.976 51.272 639.386 50.436 643.258 50.436C643.742 50.436 644.16 50.458 644.512 50.502C644.908 50.502 645.15 50.546 645.238 50.634V71.952C645.018 71.864 644.732 71.798 644.38 71.754C644.072 71.71 643.742 71.688 643.39 71.688C639.078 71.248 635.514 71.314 632.698 71.886C629.926 72.458 627.726 73.382 626.098 74.658C624.514 75.934 623.392 77.452 622.732 79.212C622.116 80.972 621.808 82.886 621.808 84.954V120H599.368ZM674.686 121.32C670.374 121.32 666.436 120.506 662.872 118.878C659.352 117.206 656.558 114.786 654.49 111.618C652.422 108.45 651.388 104.578 651.388 100.002C651.388 92.566 654.248 86.846 659.968 82.842C665.688 78.838 674.664 76.814 686.896 76.77L693.826 76.704V73.206C693.826 70.522 693.056 68.52 691.516 67.2C690.02 65.836 687.666 65.176 684.454 65.22C682.166 65.264 679.856 65.814 677.524 66.87C675.192 67.882 673.542 69.774 672.574 72.546H654.16C654.424 67.398 655.942 63.196 658.714 59.94C661.486 56.684 665.182 54.286 669.802 52.746C674.466 51.206 679.68 50.436 685.444 50.436C692.924 50.436 698.842 51.338 703.198 53.142C707.554 54.902 710.656 57.388 712.504 60.6C714.396 63.768 715.342 67.508 715.342 71.82V120H696.664L694.75 108.714C692.594 113.51 689.888 116.81 686.632 118.614C683.376 120.418 679.394 121.32 674.686 121.32ZM682.408 106.866C683.904 106.866 685.334 106.602 686.698 106.074C688.062 105.546 689.272 104.82 690.328 103.896C691.384 102.928 692.22 101.872 692.836 100.728C693.452 99.584 693.782 98.352 693.826 97.032V87.726L688.282 87.792C685.994 87.792 683.618 88.1 681.154 88.716C678.734 89.332 676.688 90.366 675.016 91.818C673.344 93.226 672.508 95.184 672.508 97.692C672.508 100.552 673.498 102.796 675.478 104.424C677.458 106.052 679.768 106.866 682.408 106.866ZM760.125 121.32C753.701 121.32 747.937 119.89 742.833 117.03C737.773 114.126 733.769 110.034 730.821 104.754C727.917 99.474 726.465 93.292 726.465 86.208C726.465 79.124 727.895 72.92 730.755 67.596C733.615 62.228 737.575 58.026 742.635 54.99C747.695 51.954 753.525 50.436 760.125 50.436C766.197 50.436 771.367 51.712 775.635 54.264C779.947 56.772 783.269 60.138 785.601 64.362C787.977 68.542 789.275 73.118 789.495 78.09H771.081C770.861 76.55 770.355 74.944 769.563 73.272C768.771 71.6 767.627 70.192 766.131 69.048C764.679 67.86 762.743 67.266 760.323 67.266C756.407 67.266 753.239 68.828 750.819 71.952C748.443 75.032 747.255 79.696 747.255 85.944C747.255 92.104 748.465 96.922 750.885 100.398C753.349 103.874 756.627 105.612 760.719 105.612C763.095 105.612 765.031 104.974 766.527 103.698C768.023 102.422 769.145 100.948 769.893 99.276C770.641 97.604 771.103 96.13 771.279 94.854H789.231C789.099 99.65 787.823 104.05 785.403 108.054C783.027 112.058 779.683 115.27 775.371 117.69C771.103 120.11 766.021 121.32 760.125 121.32ZM801.751 120V21.924H824.191V77.364L846.103 51.756H869.863L845.047 79.476L870.391 120H848.347L831.187 92.742L824.191 100.464V120H801.751Z" fill="white"/>
<defs>
<clipPath id="clip0_289_2872">
<rect width="151.347" height="144" fill="white"/>
</clipPath>
</defs>
</svg>
