<svg width="503" height="78" viewBox="0 0 503 78" fill="none" xmlns="http://www.w3.org/2000/svg">
<path d="M498.097 42.7274L482.119 26.6431H502.633V18.7504H462.712L486.899 43.0878L462.801 67.1387C466.22 67.1387 473.801 67.1387 473.801 67.1387C473.801 67.1387 489.629 51.2516 497.194 43.6516C497.468 43.4174 497.706 43.1371 498.097 42.7274Z" fill="#F6F6F6"/>
<path d="M168.631 24.1737C163.369 28.6535 160.173 34.298 159.738 41.2334C159.155 50.5997 163.062 57.9079 170.913 63.4969C169.515 64.7663 168.266 65.9001 166.908 67.1387H200.825L196.97 63.426C210.77 53.9642 210.636 36.9292 202.402 27.4088C192.849 16.3571 177.558 16.5728 168.631 24.1737ZM184.02 59.0787C175.127 59.165 167.831 51.9923 167.791 43.1282C167.748 34.0576 174.755 26.9435 183.799 26.8758C188.05 26.8463 192.138 28.5145 195.164 31.5133C198.19 34.5122 199.907 38.5959 199.936 42.8663C199.965 47.1367 198.305 51.2438 195.32 54.2843C192.335 57.3247 188.27 59.0493 184.02 59.0787V59.0787Z" fill="#F6F6F6"/>
<path d="M225.234 25.4657C220.527 30.1915 217.848 35.7923 217.75 42.4405C217.621 51.3068 221.514 58.2015 228.878 63.3894L225.026 67.1387H259.044L254.983 63.4603C268.839 54.3382 269.228 36.0911 259.222 26.0233C249.406 16.1434 233.987 16.6948 225.234 25.4657ZM241.931 59.0456C233.043 59.0456 225.813 51.8244 225.829 42.955C225.813 39.754 226.743 36.6203 228.5 33.9509C230.257 31.2814 232.763 29.1963 235.7 27.9596C238.638 26.723 241.874 26.3904 244.999 27.004C248.124 27.6177 250.998 29.1499 253.257 31.4066C255.515 33.6634 257.056 36.5431 257.685 39.6811C258.314 42.8191 258.002 46.0741 256.789 49.0338C255.577 51.9936 253.517 54.5249 250.872 56.3072C248.227 58.0895 245.115 59.0425 241.931 59.0456Z" fill="#F6F6F6"/>
<path d="M416.148 27.2603H432.146V67.1387H440.185V27.2786H456.059V19.3553H416.139L416.148 27.2603Z" fill="#F6F6F6"/>
<path d="M493.021 59.3269L485.092 67.1387H502.633V59.2756L493.021 59.3269Z" fill="#F6F6F6"/>
<path d="M142.111 38.7722L126.038 54.6605C125.652 54.3076 125.376 54.0521 125.118 53.8118C117.535 46.2839 109.949 38.758 102.358 31.2342C102.108 31.0053 101.912 30.7243 101.784 30.4114C101.656 30.0985 101.6 29.7613 101.619 29.4242C101.656 26.1906 101.634 22.954 101.634 19.3553L125.888 43.2835L150.003 19.4435V67.1387H142.111V38.7722Z" fill="#F6F6F6"/>
<path d="M370.17 56.4051C364.197 65.2133 353.578 69.0464 343.286 66.2247C334.122 63.7159 326.82 54.6313 326.102 45.3645C325.667 40.2774 326.876 35.1849 329.552 30.8276C332.228 26.4702 336.233 23.0751 340.983 21.1359C350.582 17.2452 360.987 20.0729 366.95 26.2994L361.537 31.8303C359.89 30.5546 358.527 29.6161 356.853 28.8628C346.338 24.1338 335.582 31.2076 334.247 40.8723C333.025 49.8476 338.808 57.702 347.854 58.9777C352.989 59.7036 357.562 58.2518 361.295 54.6161C361.98 53.954 362.517 53.8477 363.379 54.1545C365.612 54.9563 367.86 55.6488 370.17 56.4051Z" fill="#F6F6F6"/>
<path d="M276.425 19.3553C276.425 19.3553 280.848 23.2603 282.923 25.1292C293.804 34.9063 304.689 44.6793 315.578 54.4483C315.824 54.6509 316.02 54.9071 316.152 55.1974C316.283 55.4876 316.347 55.8042 316.337 56.1227C316.298 59.7025 316.319 63.2823 316.319 67.1387L284.393 38.5306V67.0961H277.3C277.182 67.1004 277.065 67.0804 276.956 67.0372C276.847 66.9941 276.748 66.9288 276.665 66.8454C276.582 66.762 276.518 66.6625 276.475 66.5529C276.433 66.4433 276.414 66.3261 276.419 66.2088C276.419 65.7621 276.425 19.3553 276.425 19.3553Z" fill="#F6F6F6"/>
<path d="M308.485 19.3553H316.338V42.9446C316.338 42.9446 311.225 38.4163 309.008 36.3907C308.717 36.1282 308.531 35.7671 308.488 35.3763C308.461 30.1386 308.485 19.3553 308.485 19.3553Z" fill="#F6F6F6"/>
<path d="M350.21 47.1776V39.3154H370.17C370.012 39.5386 369.841 39.753 369.66 39.9579C367.38 42.1909 365.093 44.4239 362.801 46.6569C362.579 46.9112 362.277 47.0839 361.943 47.1472C358.068 47.1867 354.193 47.1776 350.21 47.1776Z" fill="#F6F6F6"/>
<path d="M397.395 18.7504C392.552 28.4127 373.194 67.1327 373.194 67.1327H381.239C381.538 67.1601 381.839 67.0909 382.097 66.9353C382.355 66.7798 382.557 66.5458 382.673 66.2675C382.941 65.7225 397.388 36.8896 397.388 36.8896C397.64 37.3884 411.83 65.7225 412.107 66.2675C412.222 66.5459 412.423 66.78 412.681 66.9356C412.938 67.0913 413.239 67.1604 413.538 67.1327H421.583L397.395 18.7504Z" fill="#F6F6F6"/>
<path d="M80.2232 36.0736C78.1385 15.7458 61.3512 0.518255 40.7212 0H39.7231C19.0931 0.518255 2.30579 15.7458 0.221111 36.0736C-1.88188 56.6331 11.3648 72.2813 25.1334 77.4212C24.7397 76.842 24.465 76.4182 24.1689 76.0128C16.5384 65.6659 20.9305 50.5024 32.9136 45.8656C34.6473 45.1949 36.3565 44.951 37.6903 45.4967C39.1737 46.1064 40.2237 47.5392 40.2237 47.5392C40.8831 46.6579 41.753 45.9557 42.754 45.4967C44.0878 44.9571 45.8062 45.1918 47.5307 45.8656C59.5138 50.5024 63.8938 65.6812 56.2754 76.0128C55.9702 76.4182 55.7077 76.842 55.3109 77.4212C69.0795 72.2813 82.3323 56.6331 80.2232 36.0736ZM40.2389 44.3291C36.9731 44.3291 32.8831 45.2436 32.8831 45.2436L40.2969 41.7652L47.665 45.2436C47.665 45.2436 43.5201 44.3291 40.2389 44.3291Z" fill="#F6F6F6"/>
</svg>
