<svg width="586" height="206" viewBox="0 0 586 206" fill="none" xmlns="http://www.w3.org/2000/svg">
<path fill-rule="evenodd" clip-rule="evenodd" d="M47.7359 88.7014C39.2645 88.7014 32.0089 86.8581 25.9691 83.1715C19.9293 79.4457 15.2818 74.2687 12.0266 67.6406C8.81065 61.0126 7.20266 53.3256 7.20266 44.5797C7.20266 35.8337 8.81065 28.1467 12.0266 21.5187C15.2818 14.8906 19.9293 9.73326 25.9691 6.04664C32.0089 2.3208 39.2645 0.457886 47.7359 0.457886C56.2072 0.457886 63.4628 2.3208 69.5026 6.04664C75.5816 9.73326 80.2291 14.8906 83.4451 21.5187C86.7003 28.1467 88.3279 35.8337 88.3279 44.5797C88.3279 53.3256 86.7003 61.0126 83.4451 67.6406C80.2291 74.2687 75.5816 79.4457 69.5026 83.1715C63.4628 86.8581 56.2072 88.7014 47.7359 88.7014ZM47.7359 75.3472C53.4227 75.3865 58.1486 74.1314 61.9137 71.5822C65.7179 69.0329 68.5613 65.4444 70.4439 60.8165C72.3656 56.1886 73.3265 50.7763 73.3265 44.5797C73.3265 38.383 72.3656 33.0099 70.4439 28.4605C68.5613 23.8718 65.7179 20.3029 61.9137 17.7536C58.1486 15.2044 53.4227 13.8905 47.7359 13.8121C42.0491 13.7729 37.3231 15.0279 33.5581 17.5771C29.793 20.1264 26.9496 23.715 25.0279 28.3428C23.1453 32.9707 22.2041 38.383 22.2041 44.5797C22.2041 50.7763 23.1453 56.169 25.0279 60.7576C26.9104 65.3071 29.7342 68.8564 33.4992 71.4057C37.3035 73.9549 42.0491 75.2688 47.7359 75.3472Z" fill="black"/>
<path d="M123.863 88.7603C119.157 88.7603 115.274 87.9759 112.215 86.4071C109.156 84.8383 106.725 82.8381 104.92 80.4065C103.116 77.9749 101.783 75.3865 100.92 72.6411C100.057 69.8957 99.4885 67.3073 99.214 64.8757C98.9787 62.4049 98.861 60.4047 98.861 58.8751V23.4012H113.215V53.9923C113.215 55.9533 113.353 58.1692 113.627 60.64C113.902 63.0716 114.529 65.4247 115.51 67.6995C116.529 69.935 118.02 71.7783 119.981 73.2294C121.981 74.6805 124.667 75.4061 128.04 75.4061C129.844 75.4061 131.629 75.1119 133.394 74.5236C135.159 73.9353 136.747 72.9352 138.159 71.5233C139.61 70.0722 140.767 68.0917 141.63 65.5816C142.493 63.0716 142.924 59.8948 142.924 56.0513V23.4012H157.161V86.9366H144.63V79.8802C143.016 81.8005 141.114 83.4663 138.924 84.8775C134.845 87.466 129.825 88.7603 123.863 88.7603Z" fill="black"/>
<path d="M198.573 87.9366C202.613 88.0543 206.731 87.7209 210.928 86.9366V75.0531C206.966 75.6414 203.437 75.7983 200.338 75.5237C197.24 75.2492 194.985 73.9353 193.573 71.5822C192.828 70.3664 192.416 68.7976 192.338 66.8759C192.298 64.9541 192.279 62.7186 192.279 60.1693V34.5199H210.928V23.4012H192.279V5.75249H178.16V23.4012H166.629V34.5199H178.16V60.993C178.16 64.6011 178.199 67.8367 178.277 70.6997C178.356 73.5628 179.121 76.3669 180.572 79.1123C182.219 82.1322 184.631 84.3481 187.808 85.76C190.985 87.1327 194.573 87.8582 198.573 87.9366Z" fill="black"/>
<path d="M348.43 45.5209C348.705 47.9525 348.842 49.9331 348.842 51.4627V86.9366H334.488V56.3455C334.488 54.3453 334.351 52.1294 334.076 49.6978C333.802 47.2662 333.154 44.9326 332.135 42.6971C331.154 40.4224 329.664 38.5595 327.664 37.1084C325.703 35.6573 323.036 34.9317 319.663 34.9317C317.859 34.9317 316.074 35.2258 314.309 35.8141C312.545 36.4024 310.937 37.4221 309.486 38.8732C308.074 40.2851 306.936 42.2461 306.073 44.7561C305.211 47.227 304.779 50.4037 304.779 54.2864V86.9366H290.425V23.4012H303.073V30.4503C304.694 28.5481 306.597 26.9044 308.78 25.5191C312.858 22.8914 317.878 21.5775 323.84 21.5775C328.546 21.5775 332.429 22.3619 335.488 23.9307C338.547 25.4994 340.979 27.4996 342.783 29.9312C344.587 32.3628 345.92 34.9513 346.783 37.6967C347.646 40.442 348.195 43.0501 348.43 45.5209Z" fill="black"/>
<path fill-rule="evenodd" clip-rule="evenodd" d="M375.102 84.5246C379.965 87.3091 385.613 88.7014 392.045 88.7014C398.163 88.7014 403.752 87.113 408.811 83.9363C413.909 80.7595 417.674 76.3081 420.106 70.5821L406.105 66.3464C404.732 69.2878 402.771 71.543 400.222 73.1117C397.712 74.6413 394.712 75.4061 391.221 75.4061C385.809 75.4061 381.691 73.6412 378.867 70.1115C376.649 67.3394 375.303 63.6724 374.826 59.1104H420.812C421.361 51.5019 420.518 44.8934 418.282 39.285C416.047 33.6767 412.615 29.3429 407.987 26.2838C403.399 23.1855 397.81 21.6363 391.221 21.6363C384.985 21.6363 379.494 23.0482 374.749 25.872C370.003 28.6958 366.297 32.6766 363.63 37.8143C360.963 42.9128 359.63 48.933 359.63 55.8748C359.63 62.3068 360.983 67.9936 363.689 72.9352C366.434 77.8769 370.239 81.74 375.102 84.5246ZM406.422 48.4035C405.91 44.2673 404.804 41.0709 403.105 38.8144C400.712 35.6376 396.947 34.0493 391.809 34.0493C386.005 34.0493 381.691 35.8533 378.867 39.4615C377.053 41.7543 375.822 44.735 375.173 48.4035H406.422Z" fill="black"/>
<path d="M0.741272 204.319L1.76098 201.132L4.4377 200.877C7.58178 200.538 10.0886 199.943 11.958 199.093C13.8275 198.243 15.3995 196.841 16.6741 194.887C17.9488 192.932 19.1809 190.171 20.3706 186.602L40.7646 124.4C41.1045 123.295 41.2745 122.19 41.2745 121.086C41.2745 119.556 40.5947 118.494 39.2351 117.899C37.8755 117.304 35.4537 116.837 31.9697 116.497L29.5479 116.242L30.5676 113.056L49.5596 113.438L68.5515 113.056L67.5318 116.242L64.8551 116.497C61.796 116.752 59.2892 117.304 57.3348 118.154C55.4653 119.004 53.8933 120.406 52.6187 122.36C51.344 124.315 50.0694 127.161 48.7948 130.9L28.9106 191.7C28.6556 192.635 28.4432 193.485 28.2733 194.249C28.1033 195.014 28.0183 195.694 28.0183 196.289C28.0183 197.818 28.6981 198.881 30.0577 199.475C31.4173 200.07 33.8391 200.538 37.3231 200.877L39.7449 201.132L38.7252 204.319L19.7332 203.937L0.741272 204.319Z" fill="black"/>
<path d="M93.125 203.809C94.2297 205.084 96.0991 205.721 98.7333 205.721C102.387 205.721 105.489 204.574 108.038 202.28C110.587 199.9 112.669 197.393 114.284 194.759L111.989 193.23C110.885 195.099 109.483 196.969 107.783 198.838C106.169 200.623 104.384 201.515 102.43 201.515C100.985 201.515 100.263 200.665 100.263 198.965C100.348 197.266 100.688 195.524 101.283 193.74L112.754 161.746C114.539 156.733 114.666 152.866 113.137 150.147C111.607 147.428 108.251 146.068 103.067 146.068C99.5831 146.068 96.3116 146.791 93.2524 148.235C90.2783 149.68 87.5166 151.549 84.9674 153.844C82.5031 156.053 80.3362 158.475 78.4668 161.109L82.5456 147.47L63.8085 147.853L62.7888 150.912C66.7826 150.912 69.3744 151.422 70.564 152.442C71.7537 153.376 71.6262 155.926 70.1817 160.089L54.3763 203.937H63.5536L75.4076 171.179C76.2574 168.884 77.5745 166.462 79.359 163.913C81.1435 161.364 83.2254 158.985 85.6047 156.775C87.984 154.566 90.4483 152.781 92.9975 151.422C95.5468 149.977 97.9686 149.255 100.263 149.255C102.727 149.255 104.299 150.147 104.979 151.932C105.659 153.631 105.531 155.841 104.597 158.56L93.5074 189.916C92.9125 191.53 92.4452 193.102 92.1053 194.632C91.7654 196.161 91.5954 197.563 91.5954 198.838C91.5954 200.877 92.1053 202.534 93.125 203.809Z" fill="black"/>
<path d="M143.235 205.339C142.385 201.345 141.238 197.691 139.793 194.377C138.349 191.063 136.947 187.961 135.587 185.072C134.312 182.268 133.208 179.591 132.273 177.042C131.338 174.408 130.871 171.731 130.871 169.012C130.871 164.763 132.231 161.194 134.95 158.305C137.669 155.331 141.025 152.611 145.019 150.147L131.891 150.912L133.038 147.853L152.412 146.833L153.049 149C151.605 149.68 149.948 150.572 148.078 151.677C146.294 152.781 144.722 154.354 143.362 156.393C142.088 158.347 141.45 161.067 141.45 164.551C141.45 168.035 141.918 171.646 142.852 175.385C143.787 179.124 144.977 183.5 146.421 188.514L149.098 197.054L164.266 179.336C166.985 176.277 169.11 173.303 170.639 170.414C172.169 167.525 172.934 165.018 172.934 162.893C172.934 160.939 172.636 159.325 172.041 158.05C171.447 156.69 170.809 155.501 170.129 154.481C169.535 153.376 169.237 152.314 169.237 151.294C169.237 150.105 169.79 148.958 170.894 147.853C171.999 146.663 173.401 146.068 175.101 146.068C177.055 146.068 178.712 146.918 180.072 148.618C181.516 150.317 182.238 152.654 182.238 155.628C182.238 159.537 180.836 163.403 178.032 167.227C175.313 170.966 171.999 175.045 168.09 179.464L145.402 205.339H143.235Z" fill="black"/>
<path fill-rule="evenodd" clip-rule="evenodd" d="M195.418 202.789C198.307 204.744 202.004 205.721 206.507 205.721C211.266 205.721 215.217 204.489 218.361 202.025C221.505 199.56 224.055 196.969 226.009 194.249L223.842 192.465C222.228 194.759 220.018 197.011 217.214 199.22C214.495 201.345 211.478 202.407 208.164 202.407C205.445 202.407 203.236 201.642 201.536 200.113C199.837 198.498 198.604 196.501 197.84 194.122C197.16 191.743 196.82 189.321 196.82 186.857C196.82 183.288 197.33 179.549 198.35 175.64L209.056 174.62C216.874 173.77 223.077 171.943 227.666 169.139C232.34 166.25 234.719 162.299 234.804 157.285C234.804 153.971 233.614 151.337 231.235 149.382C228.941 147.343 225.797 146.323 221.803 146.323C217.724 146.323 213.645 147.301 209.566 149.255C205.572 151.209 201.876 153.971 198.477 157.54C195.078 161.024 192.359 165.06 190.319 169.649C188.28 174.153 187.26 179.039 187.26 184.307C187.26 188.046 187.898 191.573 189.172 194.887C190.532 198.116 192.614 200.75 195.418 202.789ZM213.135 152.187C216.024 149.977 218.871 148.873 221.675 148.873C223.715 148.873 225.159 149.467 226.009 150.657C226.859 151.847 227.284 153.419 227.284 155.373C227.284 156.478 227.029 157.837 226.519 159.452C226.009 160.982 225.032 162.596 223.587 164.296C222.143 165.995 220.018 167.525 217.214 168.884C214.495 170.244 210.883 171.264 206.38 171.943L199.242 172.963C200.686 168.629 202.641 164.635 205.105 160.982C207.569 157.328 210.246 154.396 213.135 152.187Z" fill="black"/>
<path d="M253.155 205.721C248.736 205.721 245.252 204.956 242.703 203.427C240.153 201.897 238.326 200.07 237.222 197.946C236.117 195.821 235.565 193.867 235.565 192.083C235.565 190.128 236.075 188.514 237.094 187.239C238.199 185.879 239.729 185.2 241.683 185.2C243.043 185.2 244.105 185.624 244.87 186.474C245.719 187.324 246.144 188.386 246.144 189.661C246.144 191.02 245.847 192.21 245.252 193.23C244.657 194.249 244.36 195.482 244.36 196.926C244.36 198.626 245.124 200.07 246.654 201.26C248.184 202.365 250.138 202.917 252.517 202.917C255.152 202.917 257.318 202.365 259.018 201.26C260.802 200.07 262.162 198.626 263.097 196.926C264.031 195.142 264.499 193.4 264.499 191.7C264.499 189.746 264.159 188.046 263.479 186.602C262.799 185.157 261.525 183.373 259.655 181.248L254.939 176.277C253.07 174.238 251.668 171.986 250.733 169.522C249.798 167.057 249.331 164.635 249.331 162.256C249.331 159.622 249.968 157.073 251.243 154.608C252.517 152.144 254.429 150.105 256.979 148.49C259.528 146.876 262.757 146.068 266.666 146.068C270.829 146.068 273.974 146.621 276.098 147.725C278.222 148.83 279.667 150.105 280.432 151.549C281.281 152.994 281.706 154.311 281.706 155.501C281.706 157.115 281.196 158.517 280.177 159.707C279.157 160.812 277.797 161.364 276.098 161.364C275.078 161.364 274.059 160.982 273.039 160.217C272.104 159.452 271.637 158.262 271.637 156.648V153.461C271.637 152.187 271.297 151.124 270.617 150.275C269.937 149.34 268.578 148.873 266.538 148.873C263.394 148.873 260.93 149.85 259.145 151.804C257.446 153.759 256.596 155.968 256.596 158.432C256.596 160.132 256.936 161.831 257.616 163.531C258.296 165.145 259.4 166.802 260.93 168.502L265.773 173.6C267.388 175.215 269.003 177.127 270.617 179.336C272.232 181.546 273.039 184.477 273.039 188.131C273.039 191.02 272.189 193.824 270.49 196.544C268.79 199.178 266.453 201.387 263.479 203.172C260.505 204.871 257.064 205.721 253.155 205.721Z" fill="black"/>
<path d="M289.772 203.809C290.877 205.084 292.661 205.721 295.126 205.721C299.29 205.721 302.731 204.574 305.45 202.28C308.254 199.9 310.464 197.393 312.078 194.759L309.784 193.23C308.679 195.099 307.235 196.969 305.45 198.838C303.666 200.623 301.796 201.515 299.842 201.515C297.803 201.515 296.783 200.368 296.783 198.073C296.783 197.054 297.123 195.524 297.803 193.485L312.716 150.912H324.57L325.589 147.853H313.863L317.687 136.891H309.147L305.195 147.853H296.783L295.763 150.912H304.048L290.027 189.916C289.432 191.53 288.965 193.102 288.625 194.632C288.285 196.076 288.115 197.393 288.115 198.583C288.115 200.707 288.668 202.449 289.772 203.809Z" fill="black"/>
<path d="M399.469 205.721C396.495 205.721 394.371 205.041 393.096 203.682C391.906 202.322 391.311 200.495 391.311 198.201C391.311 196.586 391.524 194.844 391.949 192.975C392.459 191.02 393.096 188.938 393.861 186.729L404.185 158.56C404.78 156.86 405.077 155.331 405.077 153.971C405.077 152.272 404.61 151.082 403.675 150.402C402.741 149.637 401.594 149.255 400.234 149.255C398.109 149.255 395.858 149.892 393.478 151.167C391.099 152.442 388.805 154.099 386.595 156.138C384.471 158.177 382.559 160.429 380.86 162.893C379.16 165.273 377.885 167.61 377.036 169.904L364.672 203.937H355.239L371.81 158.56C372.404 156.86 372.702 155.373 372.702 154.099C372.702 152.399 372.235 151.167 371.3 150.402C370.365 149.637 369.218 149.255 367.858 149.255C365.564 149.255 363.185 149.977 360.72 151.422C358.341 152.781 356.047 154.608 353.837 156.903C351.628 159.112 349.674 161.491 347.974 164.041C346.275 166.505 345 168.884 344.15 171.179L332.296 203.937H323.119L338.924 160.089C339.774 157.88 340.199 156.095 340.199 154.736C340.199 152.611 339.349 151.464 337.65 151.294C335.95 151.039 333.911 150.912 331.531 150.912L332.551 147.853L351.288 147.47L347.592 159.834C350.311 156.265 353.582 153.079 357.406 150.275C361.23 147.47 365.522 146.068 370.28 146.068C374.359 146.068 377.121 146.961 378.565 148.745C380.095 150.445 380.86 152.611 380.86 155.246C380.86 156.435 380.732 157.753 380.477 159.197C383.111 155.713 386.298 152.654 390.037 150.02C393.861 147.386 398.067 146.068 402.656 146.068C406.65 146.068 409.454 146.961 411.068 148.745C412.768 150.445 413.617 152.569 413.617 155.118C413.617 157.328 413.193 159.537 412.343 161.746L401.763 190.808C401.339 192.167 400.956 193.485 400.616 194.759C400.361 196.034 400.234 197.181 400.234 198.201C400.234 199.135 400.404 199.943 400.744 200.623C401.084 201.217 401.678 201.515 402.528 201.515C403.973 201.515 405.545 200.623 407.244 198.838C409.029 196.969 410.473 195.099 411.578 193.23L413.872 194.759C412.258 197.393 410.219 199.9 407.754 202.28C405.375 204.574 402.613 205.721 399.469 205.721Z" fill="black"/>
<path fill-rule="evenodd" clip-rule="evenodd" d="M433.415 202.789C436.304 204.744 440.001 205.721 444.504 205.721C449.263 205.721 453.214 204.489 456.358 202.025C459.502 199.56 462.052 196.969 464.006 194.249L461.839 192.465C460.225 194.759 458.015 197.011 455.211 199.22C452.492 201.345 449.475 202.407 446.161 202.407C443.442 202.407 441.233 201.642 439.533 200.113C437.834 198.498 436.602 196.501 435.837 194.122C435.157 191.743 434.817 189.321 434.817 186.857C434.817 183.288 435.327 179.549 436.347 175.64L447.054 174.62C454.871 173.77 461.074 171.943 465.663 169.139C470.337 166.25 472.716 162.299 472.801 157.285C472.801 153.971 471.611 151.337 469.232 149.382C466.938 147.343 463.794 146.323 459.8 146.323C455.721 146.323 451.642 147.301 447.563 149.255C443.57 151.209 439.873 153.971 436.474 157.54C433.075 161.024 430.356 165.06 428.317 169.649C426.277 174.153 425.257 179.039 425.257 184.307C425.257 188.046 425.895 191.573 427.169 194.887C428.529 198.116 430.611 200.75 433.415 202.789ZM451.132 152.187C454.022 149.977 456.868 148.873 459.672 148.873C461.712 148.873 463.156 149.467 464.006 150.657C464.856 151.847 465.281 153.419 465.281 155.373C465.281 156.478 465.026 157.837 464.516 159.452C464.006 160.982 463.029 162.596 461.584 164.296C460.14 165.995 458.015 167.525 455.211 168.884C452.492 170.244 448.881 171.264 444.377 171.943L437.239 172.963C438.684 168.629 440.638 164.635 443.102 160.982C445.567 157.328 448.243 154.396 451.132 152.187Z" fill="black"/>
<path d="M519.958 205.721C517.324 205.721 515.455 205.084 514.35 203.809C513.33 202.534 512.82 200.877 512.82 198.838C512.82 197.563 512.99 196.161 513.33 194.632C513.67 193.102 514.138 191.53 514.732 189.916L525.822 158.56C526.756 155.841 526.884 153.631 526.204 151.932C525.524 150.147 523.952 149.255 521.488 149.255C519.194 149.255 516.772 149.977 514.223 151.422C511.673 152.781 509.209 154.566 506.83 156.775C504.45 158.985 502.368 161.364 500.584 163.913C498.8 166.462 497.482 168.884 496.633 171.179L484.779 203.937H475.601L491.407 160.089C492.851 155.926 492.979 153.376 491.789 152.442C490.599 151.422 488.008 150.912 484.014 150.912L485.034 147.853L503.771 147.47L499.692 161.109C501.561 158.475 503.728 156.053 506.192 153.844C508.742 151.549 511.503 149.68 514.477 148.235C517.537 146.791 520.808 146.068 524.292 146.068C529.476 146.068 532.832 147.428 534.362 150.147C535.891 152.866 535.764 156.733 533.979 161.746L522.508 193.74C521.913 195.524 521.573 197.266 521.488 198.965C521.488 200.665 522.21 201.515 523.655 201.515C525.609 201.515 527.394 200.623 529.008 198.838C530.708 196.969 532.11 195.099 533.215 193.23L535.509 194.759C533.894 197.393 531.812 199.9 529.263 202.28C526.714 204.574 523.612 205.721 519.958 205.721Z" fill="black"/>
<path d="M549.802 203.809C550.906 205.084 552.691 205.721 555.155 205.721C559.319 205.721 562.76 204.574 565.48 202.28C568.284 199.9 570.493 197.393 572.108 194.759L569.813 193.23C568.709 195.099 567.264 196.969 565.48 198.838C563.695 200.623 561.826 201.515 559.871 201.515C557.832 201.515 556.812 200.368 556.812 198.073C556.812 197.054 557.152 195.524 557.832 193.485L572.745 150.912H584.599L585.619 147.853H573.892L577.716 136.891H569.176L565.225 147.853H556.812L555.792 150.912H564.077L550.057 189.916C549.462 191.53 548.994 193.102 548.654 194.632C548.315 196.076 548.145 197.393 548.145 198.583C548.145 200.707 548.697 202.449 549.802 203.809Z" fill="black"/>
<path d="M225.766 86.9366V0.457886H239.944V86.9366H225.766Z" fill="black"/>
<path d="M258.743 0.752031V13.7532H272.921V0.752031H258.743Z" fill="black"/>
<path d="M258.743 23.4012V86.9366H272.921V23.4012H258.743Z" fill="black"/>
</svg>
